<svg width="25" height="25" viewBox="0 0 25 25" fill="none" xmlns="http://www.w3.org/2000/svg">
<path d="M12.403 2.19429C15.607 2.19429 15.9864 2.20629 17.2521 2.264C18.0131 2.27331 18.7669 2.41304 19.4807 2.67712C19.9983 2.87674 20.4684 3.18252 20.8607 3.57479C21.253 3.96706 21.5588 4.43713 21.7584 4.95473C22.0225 5.66847 22.1622 6.42222 22.1715 7.18319C22.2287 8.44885 22.2412 8.82826 22.2412 12.0321C22.2412 15.236 22.2292 15.6154 22.1715 16.881C22.1622 17.642 22.0225 18.3957 21.7584 19.1095C21.5588 19.6271 21.253 20.0971 20.8607 20.4894C20.4684 20.8817 19.9983 21.1875 19.4807 21.3871C18.7669 21.6512 18.0131 21.7909 17.2521 21.8002C15.987 21.8574 15.6075 21.8699 12.403 21.8699C9.19838 21.8699 8.81895 21.8579 7.55381 21.8002C6.7928 21.7909 6.03902 21.6512 5.32524 21.3871C4.80762 21.1875 4.33753 20.8817 3.94524 20.4894C3.55295 20.0971 3.24715 19.6271 3.04753 19.1095C2.78343 18.3957 2.6437 17.642 2.63438 16.881C2.57724 15.6154 2.56467 15.236 2.56467 12.0321C2.56467 8.82826 2.57667 8.44885 2.63438 7.18319C2.6437 6.42222 2.78343 5.66847 3.04753 4.95473C3.24715 4.43713 3.55295 3.96706 3.94524 3.57479C4.33753 3.18252 4.80762 2.87674 5.32524 2.67712C6.03902 2.41304 6.7928 2.27331 7.55381 2.264C8.81953 2.20686 9.19895 2.19429 12.403 2.19429ZM12.403 0.0321045C9.14581 0.0321045 8.73553 0.0458181 7.45553 0.104101C6.45955 0.12391 5.47415 0.31248 4.54124 0.661789C3.74095 0.963298 3.01609 1.43579 2.41724 2.04629C1.80615 2.64534 1.33324 3.37057 1.03153 4.17134C0.6822 5.1042 0.493622 6.08956 0.473811 7.08548C0.416668 8.36428 0.402954 8.77455 0.402954 12.0315C0.402954 15.2885 0.416668 15.6988 0.474954 16.9787C0.494764 17.9747 0.683343 18.96 1.03267 19.8929C1.33404 20.6935 1.80657 21.4188 2.41724 22.0179C3.01642 22.6286 3.74169 23.1011 4.54238 23.4024C5.4753 23.7517 6.4607 23.9403 7.45667 23.9601C8.73667 24.0172 9.14524 24.0321 12.4041 24.0321C15.663 24.0321 16.0715 24.0184 17.3515 23.9601C18.3475 23.9403 19.3329 23.7517 20.2658 23.4024C21.0627 23.0935 21.7864 22.6218 22.3905 22.0172C22.9947 21.4127 23.466 20.6888 23.7744 19.8917C24.1237 18.9589 24.3123 17.9735 24.3321 16.9776C24.3892 15.6988 24.403 15.2885 24.403 12.0315C24.403 8.77455 24.3892 8.36428 24.331 7.08434C24.3111 6.08841 24.1226 5.10306 23.7732 4.17019C23.4719 3.36953 22.9993 2.64431 22.3887 2.04515C21.7895 1.43451 21.0642 0.962008 20.2635 0.660646C19.3306 0.311337 18.3452 0.122768 17.3492 0.102958C16.0704 0.0458182 15.6601 0.0321045 12.403 0.0321045Z" fill="#212121"/>
<path d="M12.4051 5.87097C11.1863 5.87097 9.99489 6.23237 8.9815 6.90946C7.96812 7.58654 7.17829 8.54892 6.71188 9.67487C6.24547 10.8008 6.12343 12.0398 6.36121 13.2351C6.59898 14.4304 7.18588 15.5284 8.04769 16.3902C8.9095 17.2519 10.0075 17.8388 11.2029 18.0766C12.3983 18.3143 13.6373 18.1923 14.7633 17.7259C15.8893 17.2595 16.8517 16.4697 17.5288 15.4564C18.206 14.4431 18.5674 13.2517 18.5674 12.033C18.5674 10.3987 17.9181 8.83138 16.7625 7.67578C15.6068 6.52018 14.0394 5.87097 12.4051 5.87097ZM12.4051 16.0328C11.614 16.0328 10.8406 15.7982 10.1828 15.3587C9.52501 14.9192 9.01232 14.2945 8.70957 13.5636C8.40682 12.8328 8.3276 12.0285 8.48194 11.2526C8.63629 10.4768 9.01725 9.76406 9.57666 9.20467C10.1361 8.64529 10.8488 8.26434 11.6247 8.11001C12.4006 7.95568 13.2049 8.03489 13.9358 8.33762C14.6667 8.64036 15.2914 9.15302 15.731 9.81079C16.1705 10.4686 16.4051 11.2419 16.4051 12.033C16.4051 13.0938 15.9837 14.1111 15.2335 14.8613C14.4834 15.6114 13.466 16.0328 12.4051 16.0328Z" fill="#212121"/>
<path d="M18.8098 7.06626C19.605 7.06626 20.2498 6.42159 20.2498 5.62633C20.2498 4.83108 19.605 4.1864 18.8098 4.1864C18.0145 4.1864 17.3698 4.83108 17.3698 5.62633C17.3698 6.42159 18.0145 7.06626 18.8098 7.06626Z" fill="#212121"/>
</svg>
