<svg width="25" height="155" viewBox="0 0 25 155" fill="none" xmlns="http://www.w3.org/2000/svg">
<path fill-rule="evenodd" clip-rule="evenodd" d="M3.43164 12.8555C3.43164 7.74683 7.57301 3.60547 12.6816 3.60547C17.7903 3.60547 21.9316 7.74683 21.9316 12.8555C21.9316 17.9641 17.7903 22.1055 12.6816 22.1055C7.57301 22.1055 3.43164 17.9641 3.43164 12.8555ZM12.6816 2.10547C6.74458 2.10547 1.93164 6.91841 1.93164 12.8555C1.93164 18.7925 6.74458 23.6055 12.6816 23.6055C18.6187 23.6055 23.4316 18.7925 23.4316 12.8555C23.4316 6.91841 18.6187 2.10547 12.6816 2.10547ZM9.15131 14.8858C9.4442 15.1787 9.91908 15.1787 10.212 14.8858L12.6816 12.4161L15.1513 14.8858C15.4442 15.1787 15.9191 15.1787 16.212 14.8858C16.5049 14.5929 16.5049 14.118 16.212 13.8251L13.212 10.8251C12.9191 10.5322 12.4442 10.5322 12.1513 10.8251L9.15131 13.8251C8.85842 14.118 8.85842 14.5929 9.15131 14.8858Z" fill="#81378F"/>
<path fill-rule="evenodd" clip-rule="evenodd" d="M3.43164 142.855C3.43164 147.964 7.57301 152.105 12.6816 152.105C17.7903 152.105 21.9316 147.964 21.9316 142.855C21.9316 137.747 17.7903 133.605 12.6816 133.605C7.57301 133.605 3.43164 137.747 3.43164 142.855ZM12.6816 153.605C6.74458 153.605 1.93164 148.793 1.93164 142.855C1.93164 136.918 6.74458 132.105 12.6816 132.105C18.6187 132.105 23.4316 136.918 23.4316 142.855C23.4316 148.793 18.6187 153.605 12.6816 153.605ZM9.15131 140.825C9.4442 140.532 9.91908 140.532 10.212 140.825L12.6816 143.295L15.1513 140.825C15.4442 140.532 15.9191 140.532 16.212 140.825C16.5049 141.118 16.5049 141.593 16.212 141.886L13.212 144.886C12.9191 145.179 12.4442 145.179 12.1513 144.886L9.15131 141.886C8.85842 141.593 8.85842 141.118 9.15131 140.825Z" fill="#81378F"/>
<circle cx="12.1816" cy="36.3555" r="3.5" fill="#81378F"/>
<circle opacity="0.4" cx="12.1816" cy="56.3555" r="3.5" fill="#81378F"/>
<circle opacity="0.4" cx="12.1816" cy="76.3555" r="3.5" fill="#81378F"/>
<circle opacity="0.4" cx="12.1816" cy="96.3555" r="3.5" fill="#81378F"/>
<g opacity="0.4" filter="url(#filter0_d_1_670)">
<circle cx="12.1816" cy="116.355" r="3.5" fill="#81378F"/>
</g>
<defs>
<filter id="filter0_d_1_670" x="4.68164" y="112.855" width="15" height="15" filterUnits="userSpaceOnUse" color-interpolation-filters="sRGB">
<feFlood flood-opacity="0" result="BackgroundImageFix"/>
<feColorMatrix in="SourceAlpha" type="matrix" values="0 0 0 0 0 0 0 0 0 0 0 0 0 0 0 0 0 0 127 0" result="hardAlpha"/>
<feOffset dy="4"/>
<feGaussianBlur stdDeviation="2"/>
<feComposite in2="hardAlpha" operator="out"/>
<feColorMatrix type="matrix" values="0 0 0 0 0 0 0 0 0 0 0 0 0 0 0 0 0 0 0.25 0"/>
<feBlend mode="normal" in2="BackgroundImageFix" result="effect1_dropShadow_1_670"/>
<feBlend mode="normal" in="SourceGraphic" in2="effect1_dropShadow_1_670" result="shape"/>
</filter>
</defs>
</svg>
