<svg width="25" height="25" viewBox="0 0 25 25" fill="none" xmlns="http://www.w3.org/2000/svg">
<g clip-path="url(#clip0_3002_151)">
<path d="M13.6686 2.68143C13.6386 2.34093 13.4646 1.06143 12.5216 0.883934C12.2956 0.841434 11.8821 1.09443 12.8151 1.76743C12.7131 1.69143 11.8971 1.10593 11.7216 1.70443C11.6786 1.85043 11.5816 2.12443 12.5011 2.37893C12.5011 2.37893 11.7186 2.12643 11.6816 2.58743C11.9291 2.55093 12.1791 2.52543 12.4351 2.52543C12.8581 2.52543 13.2696 2.58293 13.6686 2.68143Z" fill="white"/>
<path d="M17.8466 9.87239C17.7271 9.47489 17.4466 7.83739 17.4466 7.83739C17.0221 5.10239 14.9611 3.02539 12.4766 3.02539C9.68561 3.02539 7.42311 5.64539 7.42311 8.87739C7.42311 9.09739 7.43711 9.31339 7.45811 9.52689C7.48861 9.52989 7.51961 9.53739 7.54861 9.55289C8.71361 10.1454 9.78911 12.1249 9.33711 13.5049C9.09461 14.2444 8.38311 15.0284 6.45761 15.0284C6.05311 15.0284 5.59112 14.9914 5.07212 14.9144C3.98412 15.0289 4.23112 15.7934 4.23112 15.7934C5.04162 18.2254 8.00911 19.1114 9.37861 19.3964L10.0881 21.5254H9.43511C9.29711 21.5254 9.18511 21.6374 9.18511 21.7754C9.18511 21.9134 9.29711 22.0254 9.43511 22.0254H10.3316L11.2586 22.9524C11.3071 23.0009 11.3711 23.0254 11.4351 23.0254C11.4991 23.0254 11.5631 23.0009 11.6121 22.9524C11.7096 22.8549 11.7096 22.6964 11.6121 22.5989L11.0386 22.0254H11.9351C12.0731 22.0254 12.1851 21.9134 12.1851 21.7754C12.1851 21.6374 12.0731 21.5254 11.9351 21.5254H10.6151L9.93911 19.4974C10.0246 19.5099 10.0831 19.5174 10.0831 19.5174C11.2376 19.7099 12.2306 19.6884 13.0906 19.5324L13.5881 21.0254H12.9351C12.7971 21.0254 12.6851 21.1374 12.6851 21.2754C12.6851 21.4134 12.7971 21.5254 12.9351 21.5254H13.8316L14.7586 22.4524C14.8071 22.5009 14.8711 22.5254 14.9351 22.5254C14.9991 22.5254 15.0631 22.5009 15.1121 22.4524C15.2096 22.3549 15.2096 22.1964 15.1121 22.0989L14.5386 21.5254H15.4351C15.5731 21.5254 15.6851 21.4134 15.6851 21.2754C15.6851 21.1374 15.5731 21.0254 15.4351 21.0254H14.1151L13.5821 19.4264C15.5661 18.9149 16.7431 17.6454 17.3871 16.6394C18.0401 15.3019 18.8091 13.0814 17.8466 9.87239Z" fill="white"/>
<path d="M8.86186 13.3491C9.23886 12.1976 8.31986 10.6281 7.46236 10.0806C6.75786 11.0736 5.51536 12.9771 5.19336 14.4226C7.23286 14.7141 8.53686 14.3411 8.86186 13.3491Z" fill="white"/>
<path d="M18.5101 10.7656C18.7806 12.5991 18.6981 14.0571 18.4396 15.2036C20.4506 14.7991 20.1426 12.7701 18.5101 10.7656Z" fill="white"/>
<path d="M12.1172 8.52539C12.3933 8.52539 12.6172 8.30153 12.6172 8.02539C12.6172 7.74925 12.3933 7.52539 12.1172 7.52539C11.841 7.52539 11.6172 7.74925 11.6172 8.02539C11.6172 8.30153 11.841 8.52539 12.1172 8.52539Z" fill="#212121"/>
<path d="M15.6172 8.52539C15.8933 8.52539 16.1172 8.30153 16.1172 8.02539C16.1172 7.74925 15.8933 7.52539 15.6172 7.52539C15.341 7.52539 15.1172 7.74925 15.1172 8.02539C15.1172 8.30153 15.341 8.52539 15.6172 8.52539Z" fill="#212121"/>
<path d="M13.0581 9.1784L13.8231 8.8009C13.8586 8.7834 13.9001 8.7839 13.9356 8.8019L14.6726 9.1809C14.7621 9.2269 14.7631 9.3549 14.6746 9.4024L13.9511 9.7899C13.9151 9.8089 13.8726 9.8099 13.8361 9.7914L13.0576 9.4024C12.9651 9.3559 12.9651 9.2239 13.0581 9.1784Z" fill="#C62828"/>
</g>
<defs>
<clipPath id="clip0_3002_151">
<rect width="24" height="24" fill="white" transform="translate(0.117188 0.0253906)"/>
</clipPath>
</defs>
</svg>
