<svg width="25" height="25" viewBox="0 0 25 25" fill="none" xmlns="http://www.w3.org/2000/svg">
<g clip-path="url(#clip0_1_635)">
<path d="M13.9544 2.68815C13.9244 2.34765 13.7504 1.06815 12.8074 0.890648C12.5814 0.848148 12.1679 1.10115 13.1009 1.77415C12.9989 1.69815 12.1829 1.11265 12.0074 1.71115C11.9644 1.85715 11.8674 2.13115 12.7869 2.38565C12.7869 2.38565 12.0044 2.13315 11.9674 2.59415C12.2149 2.55765 12.4649 2.53215 12.7209 2.53215C13.1439 2.53215 13.5554 2.58965 13.9544 2.68815Z" fill="#212121"/>
<path d="M18.1324 9.87916C18.0129 9.48166 17.7324 7.84416 17.7324 7.84416C17.3079 5.10916 15.2469 3.03217 12.7624 3.03217C9.97138 3.03217 7.70888 5.65216 7.70888 8.88416C7.70888 9.10416 7.72288 9.32016 7.74388 9.53366C7.77438 9.53666 7.80538 9.54416 7.83438 9.55966C8.99938 10.1522 10.0749 12.1317 9.62288 13.5117C9.38038 14.2512 8.66888 15.0352 6.74338 15.0352C6.33888 15.0352 5.87688 14.9982 5.35788 14.9212C4.26988 15.0357 4.51688 15.8002 4.51688 15.8002C5.32738 18.2322 8.29488 19.1182 9.66438 19.4032L10.3739 21.5322H9.72088C9.58288 21.5322 9.47088 21.6442 9.47088 21.7822C9.47088 21.9202 9.58288 22.0322 9.72088 22.0322H10.6174L11.5444 22.9592C11.5929 23.0077 11.6569 23.0322 11.7209 23.0322C11.7849 23.0322 11.8489 23.0077 11.8979 22.9592C11.9954 22.8617 11.9954 22.7032 11.8979 22.6057L11.3244 22.0322H12.2209C12.3589 22.0322 12.4709 21.9202 12.4709 21.7822C12.4709 21.6442 12.3589 21.5322 12.2209 21.5322H10.9009L10.2249 19.5042C10.3104 19.5167 10.3689 19.5242 10.3689 19.5242C11.5234 19.7167 12.5164 19.6952 13.3764 19.5392L13.8739 21.0322H13.2209C13.0829 21.0322 12.9709 21.1442 12.9709 21.2822C12.9709 21.4202 13.0829 21.5322 13.2209 21.5322H14.1174L15.0444 22.4592C15.0929 22.5077 15.1569 22.5322 15.2209 22.5322C15.2849 22.5322 15.3489 22.5077 15.3979 22.4592C15.4954 22.3617 15.4954 22.2032 15.3979 22.1057L14.8244 21.5322H15.7209C15.8589 21.5322 15.9709 21.4202 15.9709 21.2822C15.9709 21.1442 15.8589 21.0322 15.7209 21.0322H14.4009L13.8679 19.4332C15.8519 18.9217 17.0289 17.6522 17.6729 16.6462C18.3259 15.3087 19.0949 13.0882 18.1324 9.87916Z" fill="#212121"/>
<path d="M9.14762 13.3558C9.52462 12.2043 8.60562 10.6348 7.74812 10.0873C7.04362 11.0803 5.80113 12.9838 5.47913 14.4293C7.51862 14.7208 8.82262 14.3478 9.14762 13.3558Z" fill="#212121"/>
<path d="M18.7959 10.7722C19.0664 12.6057 18.9839 14.0637 18.7254 15.2102C20.7364 14.8057 20.4284 12.7767 18.7959 10.7722Z" fill="#212121"/>
<path d="M12.403 8.5321C12.6791 8.5321 12.903 8.30825 12.903 8.0321C12.903 7.75596 12.6791 7.5321 12.403 7.5321C12.1268 7.5321 11.903 7.75596 11.903 8.0321C11.903 8.30825 12.1268 8.5321 12.403 8.5321Z" fill="#212121"/>
<path d="M15.903 8.5321C16.1791 8.5321 16.403 8.30825 16.403 8.0321C16.403 7.75596 16.1791 7.5321 15.903 7.5321C15.6268 7.5321 15.403 7.75596 15.403 8.0321C15.403 8.30825 15.6268 8.5321 15.903 8.5321Z" fill="#212121"/>
<path d="M13.3439 9.18512L14.1089 8.80762C14.1444 8.79012 14.1859 8.79062 14.2214 8.80862L14.9584 9.18762C15.0479 9.23362 15.0489 9.36162 14.9604 9.40912L14.2369 9.79662C14.2009 9.81562 14.1584 9.81662 14.1219 9.79812L13.3434 9.40912C13.2509 9.36262 13.2509 9.23062 13.3439 9.18512Z" fill="#C62828"/>
</g>
<defs>
<clipPath id="clip0_1_635">
<rect width="24" height="24" fill="white" transform="translate(0.402954 0.0321045)"/>
</clipPath>
</defs>
</svg>
