<svg width="24" height="25" viewBox="0 0 24 25" fill="none" xmlns="http://www.w3.org/2000/svg">
<path fill-rule="evenodd" clip-rule="evenodd" d="M22.0387 22.5236H17.8868V15.9991C17.8868 14.4431 17.8606 12.4416 15.7295 12.4416C13.5696 12.4416 13.2398 14.1373 13.2398 15.8875V22.5236H9.09232V9.10647H13.0727V10.941H13.1296C13.6833 9.88579 15.0376 8.77348 17.0575 8.77348C21.2619 8.77348 22.0387 11.5516 22.0387 15.1653V22.5236ZM4.41119 7.27371C3.0771 7.27371 2.00195 6.19039 2.00195 4.85492C2.00195 3.52033 3.0771 2.43701 4.41119 2.43701C5.73916 2.43701 6.8178 3.52033 6.8178 4.85492C6.8178 6.19039 5.73916 7.27371 4.41119 7.27371ZM6.488 22.5236H2.33176V9.10647H6.488V22.5236Z" fill="white"/>
</svg>
