<svg width="25" height="25" viewBox="0 0 25 25" fill="none" xmlns="http://www.w3.org/2000/svg">
<path fill-rule="evenodd" clip-rule="evenodd" d="M22.4397 22.0321H18.2878V15.5357C18.2878 13.9864 18.2616 11.9936 16.1305 11.9936C13.9706 11.9936 13.6408 13.682 13.6408 15.4246V22.0321H9.49332V8.67282H13.4737V10.4994H13.5306C14.0843 9.44878 15.4386 8.34126 17.4585 8.34126C21.6629 8.34126 22.4397 11.1074 22.4397 14.7055V22.0321ZM4.81219 6.84796C3.4781 6.84796 2.40295 5.76931 2.40295 4.43959C2.40295 3.11075 3.4781 2.0321 4.81219 2.0321C6.14016 2.0321 7.21881 3.11075 7.21881 4.43959C7.21881 5.76931 6.14016 6.84796 4.81219 6.84796ZM6.889 22.0321H2.73276V8.67282H6.889V22.0321Z" fill="#212121"/>
</svg>
