<svg width="25" height="25" viewBox="0 0 25 25" fill="none" xmlns="http://www.w3.org/2000/svg">
<path d="M12.2324 2.59976C15.4364 2.59976 15.8159 2.61182 17.0816 2.66978C17.8426 2.67913 18.5964 2.81947 19.3101 3.08469C19.8278 3.28517 20.2978 3.59228 20.6901 3.98625C21.0824 4.38021 21.3882 4.85231 21.5879 5.37215C21.8519 6.08899 21.9917 6.84599 22.001 7.61026C22.0581 8.8814 22.0707 9.26245 22.0707 12.4802C22.0707 15.6979 22.0587 16.0789 22.001 17.3501C21.9917 18.1143 21.8519 18.8713 21.5879 19.5882C21.3882 20.108 21.0824 20.5801 20.6901 20.9741C20.2978 21.3681 19.8278 21.6752 19.3101 21.8756C18.5964 22.1409 17.8426 22.2812 17.0816 22.2906C15.8164 22.3479 15.437 22.3606 12.2324 22.3606C9.02785 22.3606 8.64842 22.3485 7.38328 22.2906C6.62227 22.2812 5.86849 22.1409 5.15471 21.8756C4.63709 21.6752 4.167 21.3681 3.77471 20.9741C3.38242 20.5801 3.07662 20.108 2.87699 19.5882C2.6129 18.8713 2.47316 18.1143 2.46385 17.3501C2.40671 16.0789 2.39414 15.6979 2.39414 12.4802C2.39414 9.26245 2.40614 8.8814 2.46385 7.61026C2.47316 6.84599 2.6129 6.08899 2.87699 5.37215C3.07662 4.85231 3.38242 4.38021 3.77471 3.98625C4.167 3.59228 4.63709 3.28517 5.15471 3.08469C5.86849 2.81947 6.62227 2.67913 7.38328 2.66978C8.64899 2.61239 9.02842 2.59976 12.2324 2.59976V2.59976ZM12.2324 0.428223C8.97528 0.428223 8.56499 0.441996 7.28499 0.500531C6.28902 0.520426 5.30362 0.709812 4.37071 1.06063C3.57042 1.36345 2.84556 1.83798 2.24671 2.45113C1.63562 3.05277 1.1627 3.78114 0.860993 4.58537C0.511668 5.52228 0.323089 6.5119 0.303279 7.51213C0.246136 8.79646 0.232422 9.2085 0.232422 12.4796C0.232422 15.7507 0.246136 16.1627 0.304422 17.4482C0.324232 18.4484 0.512811 19.4381 0.862136 20.375C1.16351 21.1791 1.63603 21.9074 2.24671 22.5092C2.84589 23.1225 3.57115 23.597 4.37185 23.8997C5.30476 24.2505 6.29016 24.4399 7.28614 24.4598C8.56614 24.5172 8.97471 24.5321 12.2336 24.5321C15.4924 24.5321 15.901 24.5183 17.181 24.4598C18.177 24.4399 19.1624 24.2505 20.0953 23.8997C20.8922 23.5895 21.6158 23.1157 22.22 22.5085C22.8241 21.9014 23.2955 21.1743 23.6039 20.3738C23.9532 19.4369 24.1418 18.4473 24.1616 17.447C24.2187 16.1627 24.2324 15.7507 24.2324 12.4796C24.2324 9.2085 24.2187 8.79646 24.1604 7.51098C24.1406 6.51075 23.952 5.52113 23.6027 4.58422C23.3013 3.7801 22.8288 3.05173 22.2181 2.44998C21.619 1.8367 20.8937 1.36215 20.093 1.05948C19.1601 0.708664 18.1747 0.519278 17.1787 0.499383C15.8999 0.441996 15.4896 0.428223 12.2324 0.428223Z" fill="white"/>
<path d="M12.2346 6.29248C11.0158 6.29248 9.82435 6.65544 8.81097 7.33546C7.79759 8.01548 7.00775 8.98202 6.54134 10.1129C6.07494 11.2437 5.9529 12.488 6.19067 13.6885C6.42845 14.889 7.01535 15.9917 7.87716 16.8572C8.73897 17.7227 9.83698 18.3121 11.0324 18.5509C12.2277 18.7897 13.4667 18.6671 14.5928 18.1987C15.7188 17.7303 16.6812 16.9371 17.3583 15.9194C18.0354 14.9017 18.3968 13.7052 18.3968 12.4812C18.3968 10.8398 17.7476 9.2657 16.5919 8.1051C15.4363 6.9445 13.8689 6.29248 12.2346 6.29248ZM12.2346 16.4983C11.4434 16.4983 10.6701 16.2627 10.0123 15.8213C9.35448 15.3799 8.84179 14.7525 8.53903 14.0184C8.23628 13.2844 8.15707 12.4767 8.31141 11.6975C8.46575 10.9182 8.84672 10.2024 9.40613 9.64062C9.96554 9.07881 10.6783 8.69621 11.4542 8.54121C12.2301 8.38621 13.0344 8.46576 13.7653 8.76981C14.4962 9.07386 15.1209 9.58874 15.5604 10.2494C16 10.91 16.2345 11.6866 16.2345 12.4812C16.2345 13.5466 15.8131 14.5683 15.063 15.3217C14.3128 16.0751 13.2954 16.4983 12.2346 16.4983V16.4983Z" fill="white"/>
<path d="M18.6392 7.49292C19.4345 7.49292 20.0792 6.84545 20.0792 6.04675C20.0792 5.24806 19.4345 4.60059 18.6392 4.60059C17.8439 4.60059 17.1992 5.24806 17.1992 6.04675C17.1992 6.84545 17.8439 7.49292 18.6392 7.49292Z" fill="white"/>
</svg>
