<svg width="1920" height="928" viewBox="0 0 1920 928" fill="none" xmlns="http://www.w3.org/2000/svg">
<mask id="mask0_3002_16" style="mask-type:alpha" maskUnits="userSpaceOnUse" x="0" y="0" width="1920" height="928">
<rect width="1920" height="928" fill="#0C2E5E"/>
</mask>
<g mask="url(#mask0_3002_16)">
<g opacity="0.5">
<path d="M828.924 1287.52C829.385 1288.21 830.077 1288.68 830.538 1289.37C831.691 1290.53 832.152 1291.69 832.382 1293.54H816.936C816.474 1290.3 817.627 1287.29 820.163 1285.9C821.316 1285.2 822.469 1284.97 823.622 1284.97C825.696 1284.97 827.541 1285.67 828.924 1287.52ZM842.757 1263.67C839.53 1263.21 836.994 1264.36 834.457 1266.22C833.305 1267.14 832.844 1268.07 832.613 1269.23C830.538 1278.49 838.607 1284.05 844.602 1284.74C848.06 1285.2 853.132 1280.8 853.363 1277.33C854.054 1272.01 852.441 1267.84 848.06 1264.6C846.677 1263.67 845.293 1263.67 843.91 1263.67H843.218H842.757ZM855.207 1262.28C860.049 1266.45 860.51 1272.01 859.357 1278.03C857.513 1286.36 849.904 1291.46 841.605 1289.37C833.996 1287.29 827.08 1280.34 827.541 1271.31C827.541 1265.29 830.308 1261.59 835.841 1259.5C837.685 1258.81 839.53 1258.34 841.374 1258.11C842.296 1257.88 843.218 1257.88 844.141 1257.88C848.291 1257.65 851.979 1259.5 855.207 1262.28ZM783.967 1255.1C789.039 1255.1 792.266 1258.81 792.497 1264.83C792.728 1269.23 786.964 1273.86 782.583 1273.86C776.819 1273.86 773.131 1269.92 773.131 1263.21C772.208 1258.58 778.433 1255.1 783.967 1255.1ZM788.808 1278.95C794.572 1277.56 798.03 1273.39 798.261 1267.37C798.261 1264.36 797.8 1261.59 796.877 1258.81C795.725 1255.57 793.419 1253.48 790.191 1252.32C789.269 1252.09 788.347 1251.63 787.425 1251.17C784.658 1250.01 781.661 1249.78 778.894 1251.17C777.05 1252.09 774.975 1252.55 773.131 1253.71C769.442 1256.26 768.058 1259.5 768.058 1263.9C768.289 1271.54 771.747 1276.17 779.355 1278.49C781.2 1279.18 783.275 1279.41 785.119 1279.41C786.503 1279.41 787.655 1279.18 788.808 1278.95ZM791.114 1246.77C793.65 1247.69 796.416 1248.62 798.491 1250.7C802.411 1254.64 803.563 1259.27 803.563 1264.6C803.563 1265.98 803.563 1267.14 803.333 1268.53C802.872 1271.77 802.411 1275.02 800.336 1277.56C796.877 1281.73 792.266 1284.51 786.964 1285.2C776.589 1286.36 765.753 1278.26 763.908 1267.84C762.525 1259.73 765.061 1253.25 771.747 1248.62C775.206 1246.3 778.894 1245.38 782.583 1245.38C785.119 1245.38 788.116 1245.84 791.114 1246.77ZM796.416 1290.07C800.105 1289.37 803.333 1287.06 804.947 1283.81C807.022 1279.65 809.327 1275.48 810.249 1270.85C811.633 1263.9 810.48 1257.65 806.561 1252.09C804.486 1248.85 802.18 1245.84 798.722 1243.76C796.186 1242.14 793.419 1241.21 790.422 1241.21C787.886 1240.98 785.58 1241.21 783.044 1240.98C780.278 1240.75 777.972 1242.14 775.667 1243.29C771.747 1245.15 767.828 1247 764.37 1249.78C759.989 1253.25 756.992 1257.42 756.761 1262.97C756.531 1270.15 758.145 1276.64 763.447 1281.96C769.672 1288.21 777.511 1290.76 786.041 1291.69C789.5 1290.99 792.958 1290.76 796.416 1290.07ZM793.189 1235.42C803.794 1238.89 812.094 1245.15 815.552 1256.72C818.088 1265.52 818.319 1274.32 815.091 1282.89C813.477 1287.06 810.941 1290.53 807.713 1293.31H765.292C756.761 1286.82 751.689 1276.64 752.381 1264.13C753.073 1248.39 761.142 1241.67 774.744 1237.97C775.897 1237.74 777.281 1237.27 778.433 1236.81C781.661 1235.65 784.889 1234.73 788.347 1234.73C789.73 1234.73 791.344 1234.96 793.189 1235.42ZM851.518 1216.66C854.285 1219.44 855.899 1222.68 854.516 1226.62C853.363 1229.63 849.443 1232.18 845.755 1232.18C841.605 1232.18 838.607 1230.09 837.455 1226.16C836.994 1225 836.763 1223.84 836.532 1222.45C835.841 1218.98 837.916 1215.51 841.143 1214.12C842.527 1213.65 843.68 1213.42 844.832 1213.42C847.368 1213.65 849.443 1214.81 851.518 1216.66ZM804.486 1213.42C806.1 1213.42 807.483 1214.81 807.483 1216.43C807.483 1218.05 805.638 1220.14 804.255 1220.14C802.641 1220.14 801.489 1218.52 801.489 1216.66C801.489 1215.04 802.872 1213.42 804.486 1213.42ZM775.667 1211.34C778.664 1212.03 780.739 1213.89 782.583 1216.2C784.889 1219.21 785.58 1222.68 783.967 1226.39C782.353 1229.86 779.125 1231.25 775.667 1231.48C772.208 1231.48 769.211 1229.86 766.906 1227.55C763.909 1224.54 763.447 1219.21 765.292 1215.74C766.906 1212.73 769.903 1211.11 773.131 1211.11C773.822 1211.11 774.744 1211.11 775.667 1211.34ZM846.446 1237.5C851.057 1236.35 854.977 1234.26 858.435 1230.79C863.046 1226.16 862.124 1216.43 855.207 1214.12C853.593 1213.65 852.21 1212.73 850.596 1212.03C845.524 1209.72 840.913 1210.41 836.071 1212.96C831.921 1215.28 830.769 1218.75 830.077 1221.99C830.077 1226.16 830.999 1228.94 832.613 1231.72C834.919 1235.65 839.069 1237.74 843.449 1237.74C844.371 1237.74 845.293 1237.74 846.446 1237.5ZM847.368 1203.47C854.977 1203.7 861.202 1206.94 865.813 1212.96C873.19 1222.45 868.81 1239.12 857.513 1244.45C853.824 1246.07 849.904 1247 845.985 1248.16C838.377 1250.01 832.382 1247.46 827.541 1241.67C823.16 1236.81 821.547 1230.79 821.547 1225.23C821.085 1215.04 827.541 1206.48 836.071 1204.16C838.377 1203.47 840.913 1203.47 843.218 1203.47C844.832 1203.23 846.216 1203.23 847.368 1203.47ZM812.786 1217.82C812.786 1217.13 812.786 1216.43 812.555 1215.74C812.094 1211.8 809.788 1209.72 806.1 1208.79C802.872 1207.87 800.105 1208.1 797.569 1210.64C795.955 1212.27 795.955 1214.12 795.725 1215.97C795.725 1220.6 798.261 1224.77 801.719 1226.16C802.872 1226.62 804.025 1226.85 804.947 1226.85C809.558 1226.85 813.247 1222.92 812.786 1217.82ZM807.713 1202.54C810.019 1203.47 811.863 1204.62 813.708 1206.24C818.549 1210.41 820.394 1216.43 818.319 1221.76C816.244 1228.01 811.633 1231.25 804.255 1231.25C804.025 1231.25 803.333 1231.25 802.641 1231.02C796.186 1229.63 792.266 1225.23 790.422 1219.21C788.578 1213.42 791.114 1208.56 795.494 1204.86C797.8 1202.77 800.566 1201.61 803.563 1201.61C804.947 1201.85 806.33 1202.08 807.713 1202.54ZM863.738 1193.05C863.738 1190.27 861.893 1188.18 859.127 1187.95C856.36 1187.95 854.977 1189.11 854.977 1191.66C854.977 1194.44 856.821 1196.75 859.127 1196.75C861.202 1196.75 863.738 1194.67 863.738 1193.05ZM868.579 1192.81C868.81 1196.75 864.429 1201.15 860.049 1201.61C855.438 1202.08 849.443 1196.98 849.904 1192.12C849.674 1187.49 853.593 1183.55 858.665 1183.32H859.127C864.66 1183.09 868.349 1186.79 868.579 1192.81ZM778.433 1196.52C782.583 1196.52 786.041 1193.28 786.041 1189.34C786.041 1185.87 782.353 1182.86 778.433 1182.86C774.975 1182.86 771.056 1185.64 771.056 1188.42C771.056 1193.05 774.053 1196.52 778.433 1196.52ZM776.589 1177.76C780.508 1177.76 784.197 1179.15 787.655 1181.01C788.116 1181.24 788.578 1181.7 789.039 1182.16C791.805 1186.33 792.958 1190.73 790.883 1195.59C788.808 1199.99 784.889 1202.08 780.508 1201.85C773.592 1201.85 769.211 1199.07 767.367 1193.51C766.906 1192.12 766.675 1190.73 766.445 1189.34C765.522 1183.32 770.133 1178 776.589 1177.76ZM821.085 1177.3C823.852 1177.3 827.08 1173.6 827.08 1170.59C827.08 1166.88 824.313 1163.41 821.777 1163.41C818.319 1163.41 815.552 1166.42 815.783 1170.12C815.783 1173.83 818.319 1177.3 821.085 1177.3ZM819.472 1156.92H820.394C829.385 1157.16 834.919 1162.02 834.919 1172.67C834.919 1179.38 828.924 1184.71 821.316 1184.94C812.786 1185.17 807.252 1178.92 807.252 1169.2C807.022 1162.25 810.711 1156.92 819.472 1156.92ZM830.769 1189.8C834.919 1188.18 837.685 1185.41 838.607 1181.24C839.53 1177.76 840.913 1174.52 840.452 1170.82C839.991 1165.49 837.455 1161.32 833.766 1157.85C826.619 1151.37 815.552 1150.44 807.252 1155.3C806.1 1156 805.408 1156.69 804.486 1157.62C798.952 1165.03 798.952 1174.99 803.333 1182.63C805.177 1185.64 807.713 1188.42 810.941 1190.5C813.247 1192.12 815.783 1191.89 819.01 1191.89C822.699 1191.43 826.849 1191.19 830.769 1189.8ZM837.916 1154.38C846.216 1162.94 850.135 1172.67 845.755 1184.71C843.449 1190.96 839.53 1196.06 833.535 1198.84C830.077 1200.46 826.158 1200.46 822.699 1200.69C820.855 1200.69 819.241 1200.46 817.858 1200.46C813.016 1199.99 808.405 1198.37 804.947 1195.13C797.339 1187.72 792.728 1178.92 794.341 1167.81C795.264 1160.63 797.8 1154.84 804.486 1151.6C807.713 1149.98 810.711 1147.66 814.399 1147.43C815.783 1147.43 817.166 1147.2 818.549 1147.2C825.466 1146.97 832.382 1148.59 837.916 1154.38ZM779.817 1151.83C779.817 1154.61 776.589 1157.16 773.131 1157.16C770.364 1157.16 768.289 1155.07 768.289 1152.06C768.289 1148.82 770.825 1146.04 774.053 1146.04C777.05 1146.04 779.817 1148.59 779.817 1151.83ZM868.579 1155.3C868.349 1160.86 865.351 1163.64 859.818 1163.64C855.207 1163.64 849.904 1159.01 850.135 1154.84C850.366 1149.05 853.593 1145.12 859.818 1144.88H860.049C864.199 1144.88 868.81 1149.75 868.579 1155.3ZM784.889 1151.6C785.119 1147.89 782.583 1145.35 780.047 1143.03C778.203 1141.41 775.897 1140.25 773.131 1140.48C769.442 1140.72 766.445 1141.87 764.37 1145.35C761.834 1149.98 764.6 1158.55 769.211 1160.86C770.364 1161.32 771.517 1161.79 772.9 1161.79C778.433 1161.56 784.658 1157.62 784.889 1151.6ZM774.283 1135.62C776.358 1135.62 778.664 1135.39 780.739 1136.55C785.58 1139.1 787.886 1143.49 789.5 1148.59C790.422 1151.14 790.191 1153.68 789.269 1156.23C786.503 1163.41 780.739 1166.65 773.361 1167.58C769.903 1168.04 766.906 1166.65 764.37 1164.1C761.372 1161.09 759.528 1157.39 758.836 1153.22C757.453 1145.81 761.372 1138.86 768.289 1136.32C769.672 1135.85 771.056 1135.62 772.439 1135.62H774.283ZM805.177 1126.36C806.561 1128.21 807.483 1130.53 807.944 1132.84C808.636 1136.55 807.483 1139.33 804.255 1141.18C802.872 1142.11 801.258 1142.57 799.414 1142.8C793.419 1143.96 788.347 1139.79 788.578 1133.54C788.578 1131.92 788.578 1130.06 789.961 1128.91C792.036 1126.82 794.341 1124.74 797.339 1123.81C798.261 1123.58 798.952 1123.35 799.875 1123.35C802.18 1123.58 804.025 1124.51 805.177 1126.36ZM839.76 1109.92C843.218 1109.92 845.063 1112.24 845.063 1117.33C845.063 1120.34 842.988 1122.19 839.76 1122.19C836.302 1122.19 833.305 1119.18 833.305 1115.94C833.535 1113.16 836.763 1109.92 839.76 1109.92ZM844.832 1123.81C847.368 1121.73 849.674 1119.18 849.213 1115.48C848.752 1111.54 845.524 1108.3 841.605 1107.6C839.76 1107.37 837.916 1106.91 836.071 1107.37C831.46 1108.76 829.616 1111.08 829.385 1116.4C829.616 1119.41 830.077 1123.12 833.996 1124.97C835.61 1125.67 836.994 1126.13 838.607 1126.13C840.682 1126.36 842.988 1125.43 844.832 1123.81ZM852.902 1110.61C856.129 1117.79 853.824 1125.2 847.138 1129.14C839.76 1133.54 829.616 1131.22 826.388 1124.97C822.699 1118.26 822.699 1111.54 828.694 1106.22C832.152 1102.97 836.071 1102.28 839.76 1102.28C845.985 1102.51 850.366 1104.83 852.902 1110.61ZM846.216 1134.7C853.593 1132.38 859.357 1122.66 857.743 1115.25C857.282 1112.47 856.36 1109.92 854.977 1107.37C851.288 1100.66 845.293 1097.65 838.146 1096.72C836.994 1096.49 835.61 1096.95 834.457 1097.42C830.308 1098.81 825.927 1100.19 822.469 1102.74C818.549 1105.98 816.244 1110.15 816.705 1115.01C816.705 1120.8 818.549 1125.2 821.316 1129.6C822.008 1130.76 822.93 1131.69 824.083 1132.38C828.694 1134.7 833.305 1136.32 838.377 1136.32C840.913 1136.09 843.449 1135.62 846.216 1134.7ZM859.357 1104.83C862.815 1110.38 863.276 1116.4 862.585 1122.89C861.893 1129.37 859.127 1134.46 853.824 1138.17C848.521 1141.87 842.757 1142.57 836.532 1142.57H832.844C825.005 1141.87 818.088 1139.1 814.399 1131.92C809.788 1122.89 808.175 1113.39 812.324 1103.44C815.783 1095.56 821.547 1090.7 829.846 1090.01C830.999 1090.01 832.152 1089.78 833.305 1089.78C844.371 1089.78 853.132 1094.87 859.357 1104.83ZM767.367 1099.04C770.595 1099.04 771.747 1097.65 771.517 1094.41C771.286 1091.86 769.211 1089.08 766.445 1088.39C764.37 1087.69 762.295 1088.39 760.911 1090.24C759.528 1091.86 759.528 1093.71 760.681 1095.33C762.295 1097.42 764.139 1099.04 766.675 1099.04H767.367ZM777.511 1090.7C779.125 1094.64 777.742 1099.5 774.053 1102.74C772.439 1104.13 770.594 1104.83 768.289 1104.83C763.908 1104.59 760.45 1102.05 757.453 1098.81C756.3 1097.42 755.378 1096.03 755.148 1094.17C754.456 1088.62 759.759 1082.37 765.292 1082.13H765.522C770.595 1082.37 775.667 1086.07 777.511 1090.7ZM774.744 1107.37C780.278 1105.06 782.583 1100.43 783.505 1095.1C783.967 1092.79 783.275 1090.01 781.661 1087.92C778.894 1084.22 775.206 1081.44 770.594 1080.28C768.52 1079.82 766.445 1079.82 764.37 1080.28C760.911 1080.98 757.684 1082.37 754.686 1084.22C752.15 1085.84 750.536 1088.39 750.767 1090.24C750.998 1096.95 753.073 1101.12 757.453 1104.13C759.067 1105.29 760.681 1106.22 762.525 1107.14C764.6 1108.3 766.445 1108.99 768.52 1108.99C770.364 1108.99 772.439 1108.3 774.744 1107.37ZM769.442 1074.49C775.897 1075.42 780.969 1079.12 785.119 1083.99C789.269 1088.62 792.036 1098.11 786.733 1105.06C785.35 1106.91 783.736 1108.53 782.122 1109.92C777.511 1114.09 772.439 1116.63 766.214 1116.17C765.522 1116.17 765.061 1115.94 764.37 1115.94C755.148 1115.94 745.464 1107.14 744.773 1095.33C744.542 1089.54 746.387 1084.68 750.306 1080.51C754.456 1076.11 759.528 1074.03 765.061 1074.03C766.675 1074.26 768.058 1074.26 769.442 1074.49ZM780.278 1115.94C783.967 1114.09 787.425 1112 790.422 1109.23C792.497 1107.14 793.65 1104.59 794.111 1101.82C795.264 1092.79 792.497 1085.14 785.35 1079.36C784.658 1078.89 783.967 1078.2 783.275 1077.73C778.894 1073.8 773.822 1071.02 769.442 1071.48C758.836 1071.25 751.689 1074.49 746.156 1081.44C743.62 1084.68 741.314 1087.92 740.853 1092.09C740.853 1092.79 740.623 1093.48 740.623 1094.17C740.392 1103.9 743.85 1111.54 752.842 1116.17C757.222 1118.49 761.834 1119.65 766.214 1119.65C771.056 1119.65 775.667 1118.49 780.278 1115.94ZM777.742 1067.08C785.35 1069.63 791.344 1074.49 794.802 1082.13C795.494 1083.52 796.186 1084.68 796.877 1085.84C799.183 1089.54 800.105 1093.94 800.336 1098.34C800.336 1100.66 800.105 1102.97 799.183 1105.06C796.647 1110.15 793.88 1115.01 789.73 1118.95C783.736 1124.74 776.589 1127.29 768.75 1126.59C761.372 1125.9 754.225 1123.35 748.231 1118.95C741.314 1113.86 736.473 1107.37 735.781 1098.34C735.32 1092.55 737.164 1087 740.162 1082.13C742.698 1077.97 745.925 1074.49 749.845 1071.71C755.378 1067.55 761.372 1065.46 767.597 1065.46C770.594 1065.23 774.283 1065.93 777.742 1067.08ZM832.382 1071.02C832.844 1068.94 832.382 1067.08 830.769 1065.69C828.924 1063.84 826.388 1062.92 823.622 1062.68C819.241 1062.45 817.166 1066.16 817.166 1069.4C817.397 1072.64 820.855 1075.88 824.313 1076.35H825.005C828.463 1076.35 831.691 1074.03 832.382 1071.02ZM841.835 1061.76C842.296 1062.68 842.757 1063.84 843.218 1064.77C845.063 1067.55 845.063 1070.56 843.91 1073.57C842.296 1078.2 839.068 1081.21 835.149 1083.99C828.463 1088.85 821.316 1089.31 814.399 1084.91C809.558 1081.9 806.33 1077.27 806.33 1071.48C806.33 1064.07 809.558 1058.05 816.474 1054.58C819.702 1052.96 823.391 1051.8 828.002 1051.8H828.233C834.227 1051.8 839.299 1055.27 841.835 1061.76ZM744.773 1056.66C746.617 1055.27 748 1053.42 749.845 1051.8C754.917 1046.71 753.073 1039.76 750.075 1036.29C747.539 1033.28 744.542 1031.42 742.006 1031.42C736.242 1031.42 732.784 1033.05 729.556 1035.36C726.559 1037.68 723.792 1040.22 722.409 1043.93C721.256 1046.94 721.487 1049.72 723.101 1052.03C725.406 1055.51 728.403 1058.52 732.553 1059.44C733.706 1059.67 734.859 1059.91 736.012 1059.91C739.239 1060.14 742.237 1058.98 744.773 1056.66ZM758.836 1045.78C759.759 1055.74 746.617 1067.78 738.087 1067.08C727.02 1066.39 716.645 1058.98 716.876 1046.71C717.106 1033.97 725.867 1025.17 737.856 1024.48H738.548C748.231 1024.25 759.067 1033.28 758.836 1045.78ZM792.958 1030.73C795.494 1030.5 798.491 1030.73 800.336 1027.72C801.95 1025.17 801.719 1022.16 799.644 1019.85C798.491 1018.46 797.108 1017.53 795.494 1016.61C792.497 1014.52 788.808 1015.22 786.503 1017.76C784.658 1019.85 782.583 1022.63 783.967 1025.4C785.58 1028.41 788.347 1030.73 792.266 1030.73H792.958ZM796.186 1009.66C807.483 1011.28 810.249 1023.78 805.638 1030.5C802.411 1035.13 798.261 1037.68 793.189 1037.44C791.114 1037.68 789.5 1037.68 787.886 1036.98C782.353 1034.2 778.894 1029.8 778.433 1023.78C777.972 1017.76 782.122 1011.97 787.886 1010.35C789.73 1009.89 791.575 1009.66 793.419 1009.66H796.186ZM712.034 1004.33C714.34 1007.57 715.031 1010.82 713.187 1014.29C711.112 1018.23 708.115 1020.54 703.504 1020.77C701.89 1020.77 700.276 1020.31 698.893 1019.38C695.896 1016.84 693.36 1013.83 692.437 1009.89C691.515 1006.65 692.668 1003.18 695.204 1001.32C697.279 999.702 699.584 998.776 701.89 998.776C705.579 998.776 709.268 1000.63 712.034 1004.33ZM803.333 1039.3L808.866 1033.74C810.48 1032.12 811.402 1030.04 811.863 1027.72C813.247 1019.85 811.172 1013.36 805.177 1008.04C801.258 1004.8 796.877 1002.71 792.036 1001.79C787.194 1000.86 783.275 1002.94 779.817 1006.19C769.672 1015.45 768.981 1029.57 778.203 1040.45C781.43 1044.16 785.811 1045.55 791.114 1045.32C791.575 1045.32 792.266 1045.55 792.728 1045.55C796.877 1045.32 800.336 1042.54 803.333 1039.3ZM807.713 998.776C815.783 1003.87 820.855 1010.82 822.008 1020.54C822.469 1024.71 822.699 1028.88 820.624 1032.81C816.935 1039.99 811.633 1045.55 804.716 1049.49C799.875 1052.26 794.572 1053.88 788.808 1052.96C775.897 1050.64 762.986 1037.68 763.678 1022.16C764.37 1008.5 777.742 994.608 790.422 995.071H791.805C797.339 994.608 803.794 996.229 807.713 998.776ZM754.225 995.071C754.456 1001.32 746.617 1006.88 741.775 1006.65C736.012 1007.11 731.401 1000.17 730.94 993.219C730.709 988.356 736.242 983.725 742.237 983.494C748 983.725 753.995 989.745 754.225 995.071ZM706.04 1025.64C711.112 1024.25 715.723 1021.7 718.951 1017.3C721.256 1014.06 721.717 1010.58 720.334 1006.88C718.259 1001.09 714.801 996.46 709.729 993.219C703.504 989.051 698.201 989.282 693.36 994.376C691.515 996.46 689.44 998.081 688.057 1000.4C686.673 1002.48 685.982 1004.8 686.212 1008.5C686.674 1013.36 688.518 1018.69 693.821 1021.93C695.434 1022.86 697.048 1024.01 698.662 1024.71C700.046 1025.4 701.659 1025.87 703.043 1025.87C703.965 1026.1 704.887 1025.87 706.04 1025.64ZM702.582 982.799C703.273 982.799 703.965 982.799 704.426 983.03C712.495 984.188 719.412 987.198 722.87 995.071C724.254 997.85 725.176 1000.86 725.867 1003.87C727.942 1012.44 725.176 1020.08 718.029 1025.17C716.184 1026.56 714.109 1027.95 712.265 1029.34C704.426 1034.9 695.204 1034.2 688.287 1027.49C687.365 1026.79 686.674 1025.87 685.982 1024.94C681.832 1020.08 677.682 1014.98 677.913 1008.27C677.682 1006.42 677.682 1004.8 678.143 1003.41C680.218 994.839 685.751 989.282 693.129 985.577C696.357 983.957 699.354 982.799 702.582 982.799ZM653.243 973.537C657.854 973.768 662.466 977.473 662.466 981.641C662.466 985.346 658.546 988.819 654.627 988.819C650.477 988.819 646.327 984.883 646.327 980.946C646.557 977.473 649.785 973.537 653.243 973.537ZM773.361 986.735C779.355 986.504 782.814 983.725 783.505 978.399V977.242C783.044 971.684 776.128 966.822 770.825 969.137C765.753 971.221 763.908 976.315 766.445 981.41C767.136 983.03 768.289 984.188 769.442 985.346C770.594 986.272 771.747 986.504 772.669 986.504C773.131 986.735 773.361 986.735 773.361 986.735ZM776.819 963.812C782.814 965.201 786.733 969.137 789.039 974.463C791.575 979.789 790.191 984.188 785.58 987.893C784.658 988.588 783.736 989.282 782.583 989.977C777.742 992.756 772.669 994.145 767.597 991.366C762.525 988.819 759.528 984.188 759.297 978.399C759.067 969.6 764.831 963.349 772.9 963.349C774.283 963.58 775.436 963.58 776.819 963.812ZM685.751 959.412C691.054 959.412 696.818 964.738 696.818 969.369C696.818 974.232 691.976 979.326 687.135 979.326C681.832 979.326 676.76 974.463 676.529 969.369C676.299 964.275 681.14 959.412 685.751 959.412ZM738.317 956.171C740.162 954.318 741.775 952.234 741.545 949.224C741.314 945.056 736.473 940.425 732.323 940.194C727.712 939.731 724.484 942.278 721.487 945.288C720.334 946.445 721.026 947.835 720.795 948.992C720.795 953.623 723.562 957.328 728.173 959.181C728.865 959.412 729.787 959.644 730.709 959.644C733.476 959.644 736.242 958.486 738.317 956.171ZM745.925 940.657C749.153 945.288 749.384 949.687 747.078 954.55C746.848 955.013 746.617 955.476 746.387 956.171C743.85 963.58 734.398 967.285 727.02 965.201C720.104 963.117 714.801 954.318 715.262 948.298C715.493 943.435 716.184 938.804 720.565 936.257C723.331 934.636 727.02 933.479 730.94 933.479C736.473 933.016 742.237 935.331 745.925 940.657ZM639.871 941.814C642.869 941.583 645.174 939.73 645.174 937.415C644.944 934.636 643.099 932.552 640.333 932.784C637.566 933.016 635.491 935.563 635.721 938.804C635.721 940.888 637.105 942.046 639.41 942.046C639.641 941.814 639.641 941.814 639.871 941.814ZM649.555 935.563C650.938 941.583 647.019 945.982 639.871 946.909C635.03 947.603 631.11 943.898 630.88 938.341C630.649 936.026 631.572 933.942 632.263 931.858C632.955 929.774 634.338 928.616 636.183 927.921C637.566 927.458 638.719 927.227 640.102 927.227C644.482 926.995 648.402 930.237 649.555 935.563ZM716.415 932.552C715.493 933.016 714.57 933.71 713.879 934.405C706.962 942.278 705.579 954.781 711.112 964.043C714.109 969.369 718.951 972.379 725.176 972.379C727.02 972.379 728.865 972.379 730.709 972.148C737.164 971.453 741.545 967.517 745.695 963.117C746.617 962.191 747.078 961.033 748 960.339C754.456 954.781 753.764 941.12 747.309 934.868C743.62 931.395 739.47 929.311 734.398 929.079H731.401C726.098 928.848 721.256 930.468 716.415 932.552ZM745.464 925.606C754.225 931.163 757.914 939.036 758.145 948.992C758.145 952.466 757.914 955.707 756.531 958.718C753.764 964.969 749.845 970.295 743.85 973.768C734.628 979.094 724.945 981.873 715.031 975.158C709.498 971.453 705.118 966.359 702.812 960.107C700.737 954.087 700.968 947.835 702.812 941.583C705.809 931.626 713.187 925.606 722.87 922.827C725.867 921.901 728.865 921.438 731.862 921.438C736.473 921.67 741.084 922.827 745.464 925.606ZM653.243 943.898C654.166 942.046 655.318 940.194 654.857 938.341C654.857 930.468 650.016 923.522 642.638 921.67C639.18 920.743 635.952 921.901 632.724 923.059C626.96 925.606 624.655 930.468 624.886 937.647C625.116 944.13 631.802 950.613 636.874 951.771C637.566 952.003 638.488 952.003 639.41 952.003C644.944 952.003 651.399 948.529 653.243 943.898ZM640.333 915.186C646.096 915.186 651.399 917.039 655.549 921.438C659.007 925.143 659.699 930.005 660.621 934.636C662.235 943.204 657.624 952.003 650.016 955.244C643.791 957.791 637.566 957.56 631.341 955.244C629.266 954.55 627.191 953.624 626.038 952.003C622.119 946.677 618.891 941.12 619.122 934.173C619.583 927.227 622.58 922.133 628.574 918.659C632.263 916.807 635.952 915.186 640.333 915.186ZM651.63 961.959C659.699 959.181 667.307 951.54 666.615 943.435C666.154 933.71 665.232 926.069 661.082 919.354C657.624 913.797 652.782 911.018 646.557 910.787C640.332 910.787 634.108 911.25 628.344 913.797C621.658 916.807 616.816 921.67 614.972 928.848C613.588 934.173 613.819 939.731 616.125 945.056C617.277 947.603 618.661 949.919 620.274 952.466C624.655 959.644 631.572 962.191 639.41 963.117C640.333 963.349 641.485 963.349 642.407 963.349C645.405 963.349 648.632 962.886 651.63 961.959ZM641.716 904.766C651.63 904.766 659.929 909.166 666.846 915.881C669.613 918.659 671.688 922.133 672.61 925.837C674.685 934.636 676.068 943.204 672.379 952.003C670.304 957.097 667.307 961.033 662.696 964.043C656.702 967.98 650.016 970.295 642.638 970.295C636.183 970.527 629.958 969.369 624.194 966.359C620.966 964.506 617.738 962.422 615.663 958.949C613.127 955.013 611.283 951.076 609.669 946.677C605.519 935.099 608.055 924.68 615.663 915.649C622.349 908.008 631.572 904.766 641.716 904.766ZM600.447 916.807C601.6 914.26 600.908 911.481 598.603 909.397C596.297 907.313 593.53 905.924 591.455 905.924C588.228 905.924 585.922 907.777 585.231 910.787C583.617 916.807 587.075 921.438 593.3 921.901H593.761C596.297 922.133 599.294 919.817 600.447 916.807ZM607.364 914.26C607.364 920.049 600.908 929.542 591.225 929.542C583.847 929.542 576.47 921.438 576.47 913.565C576.47 906.156 584.078 898.978 591.917 898.746H592.378C599.064 898.515 607.364 904.303 607.364 914.26ZM701.198 915.649C704.426 914.492 708.576 906.85 707.654 903.609C706.04 898.051 701.659 894.115 696.357 894.347C690.132 894.578 684.829 899.209 684.137 904.998C683.215 911.25 687.596 914.955 691.746 916.112C692.898 916.575 694.282 916.575 695.435 916.575C697.279 916.807 699.123 916.344 701.198 915.649ZM706.962 886.705C711.573 890.642 714.801 895.504 716.645 901.293C718.72 907.777 715.954 917.039 710.42 920.743C705.579 923.985 700.046 925.606 694.973 926.069C685.751 926.301 677.221 920.28 674.685 912.408C673.071 907.545 673.301 902.682 676.299 898.515C679.296 894.115 682.524 889.947 686.904 886.474C689.671 884.158 693.36 883.001 697.048 883.001C700.507 883.001 703.965 884.158 706.962 886.705ZM568.4 880.917C568.4 885.316 563.559 890.179 558.717 890.41C554.336 890.41 550.187 886.011 549.956 880.917C549.956 876.286 553.414 872.812 558.486 872.581H558.717C563.789 872.581 568.4 876.517 568.4 880.917ZM663.618 883.695C664.31 881.148 661.774 877.675 659.007 878.138C656.01 878.601 652.782 879.527 651.399 882.769C651.168 883.464 650.938 884.158 651.399 884.853C653.013 886.937 655.088 888.326 657.163 888.558C660.391 888.558 662.927 886.242 663.618 883.695ZM658.316 870.729C664.31 871.192 668.921 875.591 668.921 881.38C668.921 889.484 662.927 894.81 654.857 893.189C654.396 893.189 653.705 892.957 653.243 892.957C649.785 892.263 644.482 888.558 644.713 884.158C645.405 877.675 649.324 870.96 657.163 870.96C657.854 870.729 658.085 870.729 658.316 870.729ZM609.439 869.571C612.666 869.571 614.511 871.192 614.741 873.97C614.741 876.749 612.205 879.759 609.9 879.759C607.364 879.759 604.597 877.212 604.597 874.433C604.136 871.655 606.441 869.571 609.439 869.571ZM571.628 880.917C571.628 876.286 566.325 868.413 561.253 868.645C553.645 869.108 546.728 874.433 546.959 880.454C547.189 886.705 553.184 892.494 559.409 892.494C566.325 892.494 571.628 887.4 571.628 880.917ZM572.55 862.393C580.85 869.339 586.153 884.622 574.856 896.199C568.4 902.682 560.1 904.766 552.262 901.293C543.27 897.357 538.428 890.41 538.198 880.917C538.428 871.423 543.501 863.782 551.8 860.309C553.875 859.383 556.181 859.383 558.256 859.151C559.409 858.919 560.561 858.919 561.945 858.919C565.864 858.919 569.553 859.614 572.55 862.393ZM622.58 875.591C622.811 872.581 621.888 870.265 619.813 868.181C615.663 864.014 610.822 863.782 605.519 865.171C601.139 866.329 596.989 871.655 596.989 876.517C596.758 881.148 599.986 885.779 604.597 887.4C605.519 887.863 606.672 887.863 607.825 887.863H608.286C615.202 887.863 622.119 880.454 622.58 875.591ZM622.811 861.003C631.341 866.792 631.802 876.286 628.113 882.538C625.116 887.4 621.197 891.105 615.894 893.42C610.822 895.736 605.75 895.968 601.139 892.726C597.911 890.41 594.683 887.863 592.608 884.39C591.225 882.074 590.303 879.527 590.533 876.749C590.533 870.729 593.761 865.403 599.064 862.624C599.525 862.393 600.216 861.93 600.678 861.698C604.366 858.919 608.286 857.53 611.975 857.53C615.433 857.299 619.122 858.456 622.811 861.003ZM653.013 843.637C654.857 845.49 655.549 847.805 655.318 850.352C654.627 857.53 649.324 862.393 641.255 862.393C637.796 862.161 634.569 860.077 631.802 857.067C628.574 853.594 627.652 849.426 629.727 845.026C631.572 840.859 634.799 837.848 639.871 837.848H640.333C645.635 837.617 649.555 839.932 653.013 843.637ZM532.895 827.892C537.967 829.513 541.195 837.385 540.273 841.553C539.12 847.573 534.509 851.278 528.515 851.278C524.365 851.278 520.215 849.657 517.448 846.647C510.762 839.701 515.373 830.67 520.906 828.123C522.751 827.197 524.826 826.734 526.67 826.734C528.515 826.734 530.82 827.197 532.895 827.892ZM600.216 825.576C600.216 829.049 596.758 832.291 592.608 832.291C588.919 832.291 585.231 828.586 585.231 825.113C585.231 821.64 588.919 818.167 592.839 818.167C596.758 817.935 600.216 821.64 600.216 825.576ZM539.581 848.963C541.195 847.11 542.809 845.026 543.962 842.711C547.42 835.996 544.423 827.197 537.506 823.724C530.129 820.019 522.981 821.408 516.065 824.65C514.22 825.576 512.837 826.966 511.915 828.586C509.148 833.68 507.996 839.006 510.071 844.795C512.837 851.973 517.218 855.446 525.748 855.446C531.512 855.446 535.892 853.362 539.581 848.963ZM529.437 815.62H531.742C542.348 816.314 554.106 827.429 552.723 839.701C552.031 845.258 550.648 850.352 546.037 853.825C540.273 858.225 534.278 861.003 525.748 861.235C519.062 861.003 512.837 857.993 508.226 851.741C504.768 846.879 503.384 841.553 503.846 835.764C504.307 829.513 507.073 824.187 512.145 820.714C517.448 817.472 523.212 815.62 529.437 815.62ZM596.297 836.228C598.372 835.07 600.216 833.912 602.061 832.291C604.597 829.976 605.75 824.187 604.366 820.714C602.522 816.314 599.755 813.999 594.683 813.999C590.764 814.925 585.692 814.925 582.464 819.324C579.467 823.492 580.158 829.976 584.078 833.217C585.461 834.375 586.844 835.301 588.458 835.996C589.842 836.691 590.994 836.922 592.378 836.922C593.992 837.154 595.144 836.922 596.297 836.228ZM610.591 823.724C610.822 827.429 609.208 830.67 607.364 833.68C603.905 839.006 599.064 842.016 592.608 842.016C586.614 842.248 582.464 839.238 579.006 834.375C573.472 826.502 576.7 815.851 584.539 812.146C587.767 810.525 590.994 809.599 594.453 809.136C595.144 809.136 595.836 808.905 596.528 808.905C604.597 808.905 610.361 816.314 610.591 823.724ZM503.384 801.727C503.384 803.347 502.001 804.737 500.157 804.737C498.312 804.737 496.468 803.347 496.468 801.495C496.468 799.874 497.851 798.485 499.696 798.253H499.926C501.771 798.253 503.154 799.874 503.384 801.727ZM600.908 845.953C604.827 843.869 608.286 841.322 611.283 838.08C614.972 834.144 616.355 829.049 617.277 823.724C615.894 815.62 612.666 808.673 604.366 805.2C594.914 801.263 586.153 801.958 579.006 810.294C577.392 812.146 575.547 813.767 573.933 815.62C571.167 818.63 570.706 822.334 570.936 826.039C571.167 832.06 573.933 837.154 577.392 841.785C579.006 844.1 581.542 845.258 584.078 846.416C586.844 847.574 589.38 848.037 592.147 848.037C595.144 848.268 598.141 847.573 600.908 845.953ZM605.519 798.022C617.738 799.874 624.424 810.525 624.424 821.408C624.424 826.734 621.888 831.596 619.813 836.459C617.508 841.785 614.05 845.953 608.977 849.194C602.983 852.899 596.528 854.52 589.38 854.52C585.692 854.752 578.545 851.973 575.778 849.657C569.784 844.563 566.556 838.08 565.172 830.439C564.942 829.05 564.711 827.429 564.711 826.039C566.786 811.915 576.47 802.19 589.611 798.253C591.686 797.559 593.992 797.327 596.066 797.327C599.294 797.096 602.522 797.559 605.519 798.022ZM493.01 805.663C496.698 811.915 501.079 810.525 505.459 807.515C507.996 805.894 507.996 801.727 506.151 799.411C504.307 797.327 502.001 795.706 499.235 795.706C494.162 795.706 489.782 800.337 493.01 805.663ZM513.068 804.042C513.068 810.525 507.073 815.388 499.004 815.388C491.857 815.388 485.632 809.368 485.632 802.421C485.632 795.938 492.318 789.917 499.926 789.686H500.157C506.612 789.917 512.837 796.864 513.068 804.042ZM537.506 776.951C545.345 776.951 553.414 785.75 553.414 793.854C553.414 802.421 545.806 809.368 537.045 809.368C528.054 809.368 520.906 801.727 520.676 792.696C520.215 783.203 530.82 777.182 537.506 776.951ZM495.315 757.269C495.315 755.648 493.701 754.259 491.626 754.259C489.09 754.259 487.015 755.88 487.015 758.427C487.015 760.047 488.86 761.668 490.935 761.668C493.471 761.437 495.085 760.047 495.315 757.269ZM500.618 757.732C500.618 763.289 495.776 767.92 489.782 767.92C485.401 767.92 481.251 763.752 481.021 759.584C481.021 754.722 486.093 749.165 490.704 749.165C495.085 749.165 501.079 752.406 500.618 757.732ZM537.276 755.88C537.276 753.333 534.278 750.322 531.742 750.322C528.745 750.322 525.517 753.796 525.517 757.037C525.517 759.584 528.054 761.205 531.512 761.205C534.74 761.205 537.506 758.89 537.276 755.88ZM531.973 745.228C532.895 745.228 533.587 745.228 534.509 745.691C540.042 747.312 544.653 752.638 542.348 759.121C540.734 763.984 537.045 766.531 531.051 766.531C526.67 766.531 522.52 763.752 521.368 760.279C519.062 753.564 524.826 745.228 531.973 745.228ZM502.693 767.689C504.768 765.142 506.612 762.363 505.921 759.121C506.151 753.564 503.615 749.628 499.235 746.849C497.39 745.46 495.315 744.534 493.24 743.607C490.704 742.681 488.168 742.45 486.093 743.839C480.099 748.238 475.488 753.564 474.796 761.205C474.565 764.91 475.718 767.92 479.176 769.773C481.943 771.393 484.249 773.246 487.476 773.709C488.399 773.941 489.321 773.941 490.012 773.941C495.315 773.941 499.465 771.857 502.693 767.689ZM505.229 741.292C513.99 747.081 515.834 756.343 512.837 765.605C510.762 772.551 506.382 778.34 500.157 782.508C498.543 783.434 496.929 784.129 495.085 784.36C488.629 784.823 482.865 782.971 477.563 779.266C471.568 775.098 468.341 769.541 468.571 761.668C468.341 759.816 468.802 757.5 469.493 755.416C470.416 751.943 472.029 748.47 473.643 745.228C475.718 741.06 479.176 738.282 483.788 737.124C485.862 736.661 487.937 736.429 489.782 736.429C495.085 736.198 500.157 738.05 505.229 741.292ZM516.757 709.338C516.757 712.811 513.529 716.285 509.84 716.285C506.382 716.285 503.154 713.043 503.154 709.338C503.154 705.633 505.69 703.086 509.84 703.086C513.529 703.086 516.526 705.865 516.757 709.338ZM484.249 711.885C484.249 717.442 479.177 722.536 473.182 722.536C467.649 722.536 461.885 717.211 461.655 711.654C461.424 705.865 466.727 700.076 472.26 700.076H472.49C478.715 700.076 484.249 705.402 484.249 711.885ZM522.059 712.117C523.673 708.18 520.445 701.928 516.295 700.308C509.84 697.76 502.001 700.539 499.235 706.559C497.39 710.496 499.465 719.295 503.154 721.842C504.537 722.768 506.382 722.999 507.996 722.768C515.143 722.768 519.523 718.368 522.059 712.117ZM516.757 694.519C524.365 696.371 528.284 701.697 529.898 709.106C531.512 716.053 529.437 721.842 523.673 726.01C520.906 728.094 517.909 729.483 514.682 730.409C508.226 732.03 502.232 731.335 497.621 726.01C493.24 720.916 492.087 715.127 493.01 708.643C494.162 698.687 501.54 694.519 510.762 693.824C512.607 694.056 514.912 694.056 516.757 694.519ZM521.829 681.784C524.365 681.784 526.44 679.7 526.44 677.384C526.209 674.374 522.981 671.132 520.215 671.132C518.14 671.132 516.526 672.753 516.526 674.837C516.526 678.542 519.062 681.784 521.829 681.784ZM531.742 677.616C531.742 682.247 527.131 686.646 522.059 686.646C516.295 686.646 511.223 681.32 511.223 674.837C510.532 669.28 515.834 666.501 520.906 666.501H521.137C526.209 666.27 531.512 672.058 531.742 677.616ZM476.41 669.048C476.64 669.048 477.102 669.048 477.332 668.817C480.329 668.354 481.021 667.427 481.021 664.417C481.021 660.944 479.638 659.092 476.41 657.934C473.874 657.239 471.338 658.397 470.416 661.176C469.724 663.259 470.416 665.343 471.568 666.964C472.49 668.354 473.643 669.048 475.257 669.048H476.41ZM487.707 663.723C487.707 670.669 482.635 675.3 475.027 675.532C468.802 675.532 464.421 670.206 464.191 662.333C464.191 656.776 469.263 652.145 475.488 651.914H476.179C483.788 651.914 487.476 657.702 487.707 663.723ZM474.335 686.415C476.871 686.415 479.407 686.183 481.713 685.488C485.401 684.562 488.168 682.247 490.474 679.005C494.162 673.448 494.393 667.89 492.549 661.639C491.396 657.471 489.782 653.534 486.554 650.524C480.329 644.504 469.724 645.199 463.73 651.682C461.193 654.461 458.888 657.702 457.735 661.176C455.66 667.659 456.121 673.911 460.502 679.468C461.655 680.857 463.038 682.247 464.421 683.404C466.727 685.488 469.493 686.415 472.49 686.415C473.182 686.646 473.643 686.415 474.335 686.415ZM481.021 640.799C483.788 641.031 486.093 641.725 488.399 643.115C498.312 649.366 502.923 660.249 501.31 672.058C500.387 679.005 496.698 684.099 491.165 688.267C485.632 692.203 479.638 694.056 473.413 693.593C466.266 694.519 460.271 692.666 455.66 687.572C448.052 679.236 446.208 669.511 449.205 658.628C451.51 650.756 457.274 646.125 464.421 642.883C468.341 641.262 472.491 640.568 476.64 640.568C478.254 640.799 479.638 640.799 481.021 640.799ZM523.443 628.527C531.742 628.527 537.506 634.547 537.506 643.346C537.506 650.061 531.512 656.081 524.595 656.081C518.601 656.081 509.379 650.987 509.609 640.799C509.609 634.316 516.295 628.527 523.443 628.527ZM550.878 606.298C552.031 603.751 552.031 600.972 550.878 598.194C550.187 596.573 548.573 595.878 546.959 595.647C545.114 595.415 543.27 595.878 541.887 597.731C541.195 598.657 540.734 599.815 540.503 600.741C538.89 605.372 541.656 609.308 546.728 609.308H546.959C549.034 609.308 550.187 607.919 550.878 606.298ZM557.103 591.71C558.948 593.563 560.331 595.647 561.253 598.194C563.097 604.214 560.331 609.077 557.334 613.939C556.181 615.792 554.798 617.181 552.723 618.107C545.806 621.117 535.662 618.339 531.512 611.855C528.054 606.53 527.592 600.972 529.898 594.952C532.665 587.774 536.584 584.996 544.653 584.996H545.806C550.187 584.996 553.875 588.237 557.103 591.71ZM574.625 582.448C577.161 582.448 579.236 580.365 579.236 578.049C579.236 575.039 577.392 572.723 575.086 572.723C572.781 572.723 570.014 575.27 570.014 577.354C570.014 580.133 572.089 582.448 574.625 582.448ZM585.231 578.049C585.231 583.143 580.619 587.543 574.856 587.543C568.861 587.311 564.942 582.217 564.711 577.354C564.25 570.639 570.245 567.398 576.239 566.703H576.7C580.85 566.935 585.231 572.723 585.231 578.049ZM551.8 564.619C555.028 564.619 558.256 567.629 558.025 570.639C558.025 573.65 554.106 577.354 551.339 577.354C548.342 577.354 545.114 573.881 545.114 570.871C545.114 567.629 548.573 564.619 551.8 564.619ZM739.009 563.693C739.009 558.367 735.089 553.968 730.478 553.736C723.331 553.505 719.181 557.441 719.412 563.693C719.412 568.787 724.945 574.807 729.787 574.807C735.32 575.039 738.778 570.639 739.009 563.693ZM730.248 547.947C731.631 548.179 732.784 548.411 734.167 548.411C736.012 548.642 737.626 549.337 738.778 550.495C744.081 555.357 747.309 561.146 745.695 568.787C744.542 574.113 741.775 578.281 736.703 580.365C723.792 585.69 710.881 576.891 711.573 563.23C710.881 558.83 713.187 555.126 716.645 551.884C719.642 549.105 723.101 547.253 727.02 547.253C728.173 547.716 729.095 547.716 730.248 547.947ZM600.908 542.853C606.211 542.853 608.977 547.021 609.439 552.115C609.669 555.357 605.519 558.599 601.83 558.83C597.45 558.83 593.761 555.126 593.761 550.495C593.761 546.095 596.758 542.853 600.908 542.853ZM642.177 556.052C644.713 556.052 646.788 553.968 646.788 551.652C646.788 548.642 644.944 546.327 642.638 546.327C640.333 546.327 637.566 548.874 637.566 550.958C637.566 553.736 639.41 556.052 642.177 556.052ZM652.782 551.652C652.782 556.746 648.171 561.146 642.407 561.146C636.413 560.914 632.494 555.82 632.263 550.958C631.802 544.243 638.027 541.001 643.791 540.306H644.252C648.171 540.538 652.552 546.327 652.782 551.652ZM604.597 564.156C606.441 563.924 608.055 563.461 609.439 562.304C611.975 560.451 613.819 558.136 614.741 555.126C616.355 550.031 613.819 546.095 610.822 542.622C606.672 537.991 600.908 536.833 595.144 539.149C593.3 539.843 591.917 541.233 590.994 543.085C590.072 545.4 589.611 547.716 589.611 550.495C590.072 558.83 594.453 564.156 602.752 564.156C603.444 564.388 603.905 564.156 604.597 564.156ZM605.519 533.36C612.666 535.444 617.969 539.38 619.813 547.021C620.966 551.884 620.736 556.746 618.43 561.146C615.663 566.935 606.441 570.639 599.755 569.482C590.764 567.629 583.386 558.599 583.386 548.874C583.156 544.706 584.769 541.001 588.228 537.991C590.303 536.138 592.608 535.212 595.144 534.054C597.219 533.128 599.294 532.665 601.369 532.665C602.522 532.665 603.905 532.897 605.519 533.36ZM690.132 522.94C694.051 523.635 697.509 525.719 700.276 528.729C705.348 534.518 705.118 541.464 703.273 548.411C700.737 557.673 691.746 562.767 681.832 563.693C679.296 563.693 676.76 563.23 673.993 562.767C668.46 561.84 661.082 555.82 659.929 549.105C659.238 544.474 659.468 539.843 660.391 535.444C661.082 531.507 662.927 528.266 666.385 526.182C669.152 524.329 672.379 523.172 675.607 522.477C677.221 522.014 678.835 522.014 680.449 522.014C683.907 521.782 686.904 522.477 690.132 522.94ZM638.258 516.225C643.33 516.225 647.941 520.625 647.941 525.256C647.941 529.887 641.946 535.444 637.566 535.444C633.185 535.444 628.113 530.118 628.113 525.487C628.113 520.856 633.185 516.225 638.258 516.225Z" fill="#275497"/>
<path d="M774.107 593.926C777.335 594.389 779.871 593.231 782.407 591.379C783.56 590.453 784.021 589.526 784.252 588.369C786.327 579.107 778.257 573.55 772.263 572.855C768.805 572.392 763.733 576.791 763.502 580.264C762.81 585.59 764.424 589.758 768.805 593C770.188 593.926 771.571 593.926 772.955 593.926H773.646H774.107ZM761.658 595.315C756.816 591.147 756.355 585.59 757.508 579.57C759.352 571.234 766.96 566.14 775.26 568.224C782.868 570.308 789.785 577.254 789.324 586.285C789.324 592.305 786.557 596.01 781.024 598.094C779.18 598.788 777.335 599.252 775.491 599.483C774.569 599.715 773.646 599.715 772.724 599.715C768.574 599.946 764.885 598.094 761.658 595.315ZM765.346 640.931C762.58 638.152 760.966 634.91 762.349 630.974C763.502 627.964 767.421 625.417 771.11 625.417C775.26 625.417 778.257 627.501 779.41 631.437C779.871 632.595 780.102 633.753 780.332 635.142C781.024 638.615 778.949 642.088 775.721 643.478C774.338 643.941 773.185 644.172 772.032 644.172C769.496 643.941 767.421 642.783 765.346 640.931ZM812.379 644.172C810.765 644.172 809.382 642.783 809.382 641.162C809.382 639.541 811.226 637.457 812.61 637.457C814.224 637.457 815.376 639.078 815.376 640.931C815.376 642.551 813.993 644.172 812.379 644.172ZM841.198 646.256C838.201 645.562 836.126 643.709 834.282 641.394C831.976 638.384 831.284 634.91 832.898 631.205C834.512 627.732 837.74 626.343 841.198 626.111C844.656 626.111 847.654 627.732 849.959 630.048C852.956 633.058 853.417 638.384 851.573 641.857C849.959 644.867 846.962 646.488 843.734 646.488C843.043 646.488 842.12 646.488 841.198 646.256ZM770.419 620.091C765.808 621.249 761.888 623.333 758.43 626.806C753.819 631.437 754.741 641.162 761.658 643.478C763.271 643.941 764.655 644.867 766.269 645.562C771.341 647.877 775.952 647.182 780.793 644.635C784.943 642.32 786.096 638.847 786.788 635.605C786.788 631.437 785.866 628.658 784.252 625.88C781.946 621.943 777.796 619.86 773.416 619.86C772.494 619.86 771.571 619.86 770.419 620.091ZM769.496 654.129C761.888 653.897 755.663 650.656 751.052 644.635C743.675 635.142 748.055 618.47 759.352 613.145C763.041 611.524 766.96 610.598 770.88 609.44C778.488 607.587 784.482 610.134 789.324 615.923C793.704 620.786 795.318 626.806 795.318 632.363C795.779 642.551 789.324 651.119 780.793 653.434C778.488 654.129 775.952 654.129 773.646 654.129C772.032 654.36 770.649 654.36 769.496 654.129ZM804.079 639.773C804.079 640.467 804.079 641.162 804.31 641.857C804.771 645.793 807.076 647.877 810.765 648.803C813.993 649.729 816.76 649.498 819.296 646.951C820.91 645.33 820.91 643.478 821.14 641.625C821.14 636.994 818.604 632.826 815.146 631.437C813.993 630.974 812.84 630.742 811.918 630.742C807.307 630.742 803.618 634.679 804.079 639.773ZM809.151 655.055C806.846 654.129 805.001 652.971 803.157 651.35C798.315 647.182 796.471 641.162 798.546 635.836C800.621 629.585 805.232 626.343 812.61 626.343C812.84 626.343 813.532 626.343 814.224 626.574C820.679 627.964 824.598 632.363 826.443 638.384C828.287 644.172 825.751 649.035 821.371 652.74C819.065 654.824 816.298 655.981 813.301 655.981C811.918 655.75 810.535 655.518 809.151 655.055ZM753.127 664.549C753.127 667.327 754.972 669.411 757.738 669.643C760.505 669.643 761.888 668.485 761.888 665.938C761.888 663.159 760.044 660.844 757.738 660.844C755.663 660.844 753.127 662.928 753.127 664.549ZM748.286 664.78C748.055 660.844 752.436 656.444 756.816 655.981C761.427 655.518 767.421 660.612 766.96 665.475C767.191 670.106 763.271 674.042 758.199 674.274H757.738C752.205 674.505 748.516 670.801 748.286 664.78ZM838.431 661.075C834.282 661.075 830.823 664.317 830.823 668.253C830.823 671.727 834.512 674.737 838.431 674.737C841.89 674.737 845.809 671.958 845.809 669.18C845.809 664.549 842.812 661.075 838.431 661.075ZM840.276 679.831C836.357 679.831 832.668 678.442 829.209 676.589C828.748 676.358 828.287 675.895 827.826 675.432C825.059 671.264 823.907 666.864 825.982 662.002C828.057 657.602 831.976 655.518 836.357 655.75C843.273 655.75 847.654 658.528 849.498 664.086C849.959 665.475 850.19 666.864 850.42 668.253C851.342 674.274 846.731 679.599 840.276 679.831ZM795.779 680.294C793.013 680.294 789.785 683.999 789.785 687.009C789.785 690.714 792.552 694.187 795.088 694.187C798.546 694.187 801.313 691.177 801.082 687.472C801.082 683.767 798.546 680.294 795.779 680.294ZM797.393 700.671H796.471C787.479 700.439 781.946 695.576 781.946 684.925C781.946 678.21 787.941 672.885 795.549 672.653C804.079 672.421 809.612 678.673 809.612 688.398C809.843 695.345 806.154 700.671 797.393 700.671ZM786.096 667.79C781.946 669.411 779.18 672.19 778.257 676.358C777.335 679.831 775.952 683.073 776.413 686.778C776.874 692.103 779.41 696.271 783.099 699.744C790.246 706.228 801.313 707.154 809.612 702.291C810.765 701.597 811.457 700.902 812.379 699.976C817.912 692.566 817.912 682.61 813.532 674.968C811.687 671.958 809.151 669.18 805.924 667.096C803.618 665.475 801.082 665.706 797.854 665.706C794.165 666.17 790.016 666.401 786.096 667.79ZM778.949 703.218C770.649 694.65 766.73 684.925 771.11 672.885C773.416 666.633 777.335 661.539 783.33 658.76C786.788 657.139 790.707 657.139 794.165 656.908C796.01 656.908 797.624 657.139 799.007 657.139C803.849 657.602 808.46 659.223 811.918 662.465C819.526 669.874 824.137 678.673 822.523 689.788C821.601 696.966 819.065 702.755 812.379 705.996C809.151 707.617 806.154 709.933 802.465 710.164C801.082 710.164 799.699 710.396 798.315 710.396C791.399 710.627 784.482 709.006 778.949 703.218ZM837.048 705.765C837.048 702.986 840.276 700.439 843.734 700.439C846.501 700.439 848.576 702.523 848.576 705.533C848.576 708.775 846.04 711.553 842.812 711.553C839.815 711.553 837.048 709.006 837.048 705.765ZM748.286 702.291C748.516 696.734 751.513 693.956 757.047 693.956C761.658 693.956 766.96 698.587 766.73 702.754C766.499 708.543 763.271 712.48 757.047 712.711H756.816C752.666 712.711 748.055 707.849 748.286 702.291ZM831.976 705.996C831.745 709.701 834.282 712.248 836.818 714.564C838.662 716.184 840.968 717.342 843.734 717.111C847.423 716.879 850.42 715.721 852.495 712.248C855.031 707.617 852.265 699.05 847.654 696.734C846.501 696.271 845.348 695.808 843.965 695.808C838.432 696.04 832.207 699.976 831.976 705.996ZM842.581 721.973C840.506 721.973 838.201 722.205 836.126 721.047C831.284 718.5 828.979 714.1 827.365 709.006C826.443 706.459 826.673 703.912 827.596 701.365C830.362 694.187 836.126 690.945 843.504 690.019C846.962 689.556 849.959 690.945 852.495 693.492C855.492 696.503 857.337 700.207 858.028 704.375C859.412 711.785 855.492 718.731 848.576 721.278C847.192 721.742 845.809 721.973 844.426 721.973H842.581ZM811.687 731.235C810.304 729.383 809.382 727.067 808.921 724.752C808.229 721.047 809.382 718.268 812.61 716.416C813.993 715.49 815.607 715.027 817.451 714.795C823.446 713.637 828.518 717.805 828.287 724.057C828.287 725.678 828.287 727.53 826.904 728.688C824.829 730.772 822.523 732.856 819.526 733.782C818.604 734.014 817.912 734.245 816.99 734.245C814.685 734.014 812.84 733.088 811.687 731.235ZM777.105 747.675C773.646 747.675 771.802 745.36 771.802 740.266C771.802 737.255 773.877 735.403 777.105 735.403C780.563 735.403 783.56 738.413 783.56 741.655C783.33 744.434 780.102 747.675 777.105 747.675ZM772.032 733.782C769.496 735.866 767.191 738.413 767.652 742.118C768.113 746.054 771.341 749.296 775.26 749.991C777.105 750.222 778.949 750.685 780.793 750.222C785.404 748.833 787.249 746.517 787.479 741.192C787.249 738.182 786.788 734.477 782.868 732.625C781.255 731.93 779.871 731.467 778.257 731.467C776.182 731.235 773.877 732.161 772.032 733.782ZM763.963 746.981C760.735 739.803 763.041 732.393 769.727 728.457C777.105 724.057 787.249 726.373 790.477 732.625C794.165 739.339 794.165 746.054 788.171 751.38C784.713 754.622 780.793 755.316 777.105 755.316C770.88 755.085 766.499 752.769 763.963 746.981ZM770.649 722.899C763.271 725.215 757.508 734.94 759.122 742.35C759.583 745.128 760.505 747.675 761.888 750.222C765.577 756.937 771.571 759.947 778.718 760.874C779.871 761.105 781.255 760.642 782.407 760.179C786.557 758.79 790.938 757.4 794.396 754.853C798.315 751.612 800.621 747.444 800.16 742.581C800.16 736.792 798.315 732.393 795.549 727.993C794.857 726.836 793.935 725.91 792.782 725.215C788.171 722.899 783.56 721.278 778.488 721.278C775.952 721.51 773.416 721.973 770.649 722.899ZM757.508 752.769C754.049 747.212 753.588 741.192 754.28 734.708C754.972 728.225 757.738 723.131 763.041 719.426C768.344 715.721 774.107 715.027 780.332 715.027H784.021C791.86 715.721 798.777 718.5 802.465 725.678C807.076 734.708 808.69 744.202 804.54 754.159C801.082 762.031 795.318 766.894 787.018 767.589C785.866 767.589 784.713 767.82 783.56 767.82C772.494 767.82 763.733 762.726 757.508 752.769ZM849.498 758.558C846.27 758.558 845.117 759.947 845.348 763.189C845.579 765.736 847.654 768.515 850.42 769.209C852.495 769.904 854.57 769.209 855.953 767.357C857.337 765.736 857.337 763.884 856.184 762.263C854.57 760.179 852.726 758.558 850.19 758.558H849.498ZM839.354 766.894C837.74 762.958 839.123 758.095 842.812 754.853C844.426 753.464 846.27 752.769 848.576 752.769C852.956 753.001 856.415 755.548 859.412 758.79C860.565 760.179 861.487 761.568 861.717 763.421C862.409 768.978 857.106 775.23 851.573 775.461H851.342C846.27 775.23 841.198 771.525 839.354 766.894ZM842.12 750.222C836.587 752.538 834.282 757.169 833.359 762.494C832.898 764.81 833.59 767.589 835.204 769.673C837.97 773.377 841.659 776.156 846.27 777.314C848.345 777.777 850.42 777.777 852.495 777.314C855.953 776.619 859.181 775.23 862.178 773.377C864.714 771.756 866.328 769.209 866.098 767.357C865.867 760.642 863.792 756.474 859.412 753.464C857.798 752.306 856.184 751.38 854.34 750.454C852.265 749.296 850.42 748.601 848.345 748.601C846.501 748.601 844.426 749.296 842.12 750.222ZM847.423 783.102C840.968 782.176 835.895 778.471 831.745 773.609C827.596 768.978 824.829 759.484 830.132 752.538C831.515 750.685 833.129 749.065 834.743 747.675C839.354 743.507 844.426 740.96 850.651 741.423C851.342 741.423 851.804 741.655 852.495 741.655C861.717 741.655 871.4 750.454 872.092 762.263C872.323 768.052 870.478 772.914 866.559 777.082C862.409 781.482 857.337 783.566 851.804 783.566C850.19 783.334 848.806 783.334 847.423 783.102ZM836.587 741.655C832.898 743.507 829.44 745.591 826.443 748.37C824.368 750.454 823.215 753.001 822.754 755.78C821.601 764.81 824.368 772.451 831.515 778.24C832.207 778.703 832.898 779.398 833.59 779.861C837.97 783.797 843.043 786.576 847.423 786.113C858.028 786.344 865.176 783.102 870.709 776.156C873.245 772.914 875.55 769.672 876.011 765.505C876.011 764.81 876.242 764.115 876.242 763.421C876.473 753.696 873.014 746.054 864.023 741.423C859.642 739.108 855.031 737.95 850.651 737.95C845.809 737.95 841.198 739.108 836.587 741.655ZM839.123 790.512C831.515 787.965 825.521 783.102 822.062 775.461C821.371 774.072 820.679 772.914 819.987 771.756C817.682 768.052 816.76 763.652 816.529 759.253C816.529 756.937 816.76 754.622 817.682 752.538C820.218 747.444 822.984 742.581 827.134 738.645C833.129 732.856 840.276 730.309 848.115 731.004C855.492 731.698 862.639 734.245 868.634 738.645C875.55 743.739 880.392 750.222 881.084 759.253C881.545 765.042 879.7 770.599 876.703 775.461C874.167 779.629 870.939 783.102 867.02 785.881C861.487 790.049 855.492 792.133 849.267 792.133C846.27 792.364 842.581 791.67 839.123 790.512ZM784.482 786.576C784.021 788.66 784.482 790.512 786.096 791.901C787.941 793.754 790.477 794.68 793.243 794.912C797.624 795.143 799.699 791.438 799.699 788.197C799.468 784.955 796.01 781.713 792.552 781.25H791.86C788.402 781.25 785.174 783.566 784.482 786.576ZM775.03 795.838C774.569 794.912 774.107 793.754 773.646 792.828C771.802 790.049 771.802 787.039 772.955 784.029C774.569 779.398 777.796 776.387 781.716 773.609C788.402 768.746 795.549 768.283 802.465 772.683C807.307 775.693 810.535 780.324 810.535 786.113C810.535 793.522 807.307 799.543 800.39 803.016C797.163 804.637 793.474 805.794 788.863 805.794H788.632C782.638 805.794 777.566 802.321 775.03 795.838ZM872.092 800.932C870.248 802.321 868.864 804.173 867.02 805.794C861.948 810.888 863.792 817.835 866.789 821.308C869.325 824.318 872.323 826.171 874.859 826.171C880.623 826.171 884.081 824.55 887.309 822.234C890.306 819.919 893.072 817.372 894.456 813.667C895.608 810.657 895.378 807.878 893.764 805.563C891.458 802.09 888.461 799.079 884.311 798.153C883.159 797.922 882.006 797.69 880.853 797.69C877.625 797.459 874.628 798.616 872.092 800.932ZM858.028 811.815C857.106 801.858 870.248 789.817 878.778 790.512C889.845 791.207 900.22 798.616 899.989 810.888C899.758 823.624 890.997 832.423 879.009 833.117H878.317C868.634 833.349 857.798 824.318 858.028 811.815ZM823.907 826.865C821.371 827.097 818.373 826.865 816.529 829.876C814.915 832.423 815.146 835.433 817.221 837.748C818.373 839.138 819.757 840.064 821.371 840.99C824.368 843.074 828.057 842.379 830.362 839.832C832.207 837.748 834.282 834.97 832.898 832.191C831.284 829.181 828.518 826.865 824.598 826.865H823.907ZM820.679 847.936C809.382 846.316 806.615 833.812 811.226 827.097C814.454 822.466 818.604 819.919 823.676 820.15C825.751 819.919 827.365 819.919 828.979 820.614C834.512 823.392 837.97 827.792 838.431 833.812C838.893 839.832 834.743 845.621 828.979 847.242C827.134 847.705 825.29 847.936 823.446 847.936H820.679ZM904.831 853.262C902.525 850.02 901.833 846.779 903.678 843.306C905.753 839.369 908.75 837.054 913.361 836.822C914.975 836.822 916.589 837.285 917.972 838.211C920.969 840.758 923.505 843.769 924.427 847.705C925.35 850.947 924.197 854.42 921.661 856.272C919.586 857.893 917.28 858.819 914.975 858.819C911.286 858.819 907.597 856.967 904.831 853.262ZM813.532 818.298L807.999 823.855C806.385 825.476 805.463 827.56 805.001 829.876C803.618 837.748 805.693 844.232 811.687 849.557C815.607 852.799 819.987 854.883 824.829 855.809C829.671 856.735 833.59 854.651 837.048 851.41C847.192 842.148 847.884 828.023 838.662 817.14C835.434 813.436 831.054 812.046 825.751 812.278C825.29 812.278 824.598 812.046 824.137 812.046C819.987 812.278 816.529 815.056 813.532 818.298ZM809.151 858.819C801.082 853.725 796.01 846.779 794.857 837.054C794.396 832.886 794.165 828.718 796.24 824.781C799.929 817.603 805.232 812.046 812.149 808.11C816.99 805.331 822.293 803.71 828.057 804.637C840.968 806.952 853.879 819.919 853.187 835.433C852.495 849.094 839.123 862.987 826.443 862.524H825.059C819.526 862.987 813.071 861.366 809.151 858.819ZM862.639 862.524C862.409 856.272 870.248 850.715 875.089 850.947C880.853 850.484 885.464 857.43 885.925 864.377C886.156 869.239 880.623 873.87 874.628 874.102C868.864 873.87 862.87 867.85 862.639 862.524ZM910.825 831.96C905.753 833.349 901.142 835.896 897.914 840.295C895.608 843.537 895.147 847.01 896.531 850.715C898.606 856.504 902.064 861.135 907.136 864.377C913.361 868.544 918.664 868.313 923.505 863.219C925.35 861.135 927.425 859.514 928.808 857.199C930.191 855.115 930.883 852.799 930.652 849.094C930.191 844.232 928.347 838.906 923.044 835.664C921.43 834.738 919.816 833.58 918.203 832.886C916.819 832.191 915.205 831.728 913.822 831.728C912.9 831.496 911.978 831.728 910.825 831.96ZM914.283 874.796C913.592 874.796 912.9 874.796 912.439 874.565C904.369 873.407 897.453 870.397 893.995 862.524C892.611 859.746 891.689 856.735 890.997 853.725C888.922 845.158 891.689 837.517 898.836 832.423C900.681 831.033 902.756 829.644 904.6 828.255C912.439 822.698 921.661 823.392 928.577 830.107C929.5 830.802 930.191 831.728 930.883 832.654C935.033 837.517 939.183 842.611 938.952 849.326C939.183 851.178 939.183 852.799 938.722 854.188C936.647 862.756 931.113 868.313 923.736 872.018C920.508 873.639 917.511 874.796 914.283 874.796ZM963.621 884.058C959.01 883.827 954.399 880.122 954.399 875.954C954.399 872.249 958.319 868.776 962.238 868.776C966.388 868.776 970.538 872.712 970.538 876.649C970.307 880.122 967.08 884.058 963.621 884.058ZM843.504 870.86C837.509 871.092 834.051 873.87 833.359 879.196V880.354C833.82 885.911 840.737 890.773 846.04 888.458C851.112 886.374 852.956 881.28 850.42 876.186C849.729 874.565 848.576 873.407 847.423 872.249C846.27 871.323 845.117 871.092 844.195 871.092C843.734 870.86 843.504 870.86 843.504 870.86ZM840.045 893.783C834.051 892.394 830.132 888.458 827.826 883.132C825.29 877.807 826.673 873.407 831.284 869.702C832.207 869.008 833.129 868.313 834.282 867.618C839.123 864.84 844.195 863.45 849.267 866.229C854.34 868.776 857.337 873.407 857.567 879.196C857.798 887.995 852.034 894.247 843.965 894.247C842.581 894.015 841.429 894.015 840.045 893.783ZM931.113 898.183C925.811 898.183 920.047 892.857 920.047 888.226C920.047 883.364 924.889 878.27 929.73 878.27C935.033 878.27 940.105 883.132 940.336 888.226C940.566 893.32 935.725 898.183 931.113 898.183ZM878.548 901.425C876.703 903.277 875.089 905.361 875.32 908.371C875.55 912.539 880.392 917.17 884.542 917.402C889.153 917.865 892.381 915.318 895.378 912.308C896.531 911.15 895.839 909.76 896.07 908.603C896.07 903.972 893.303 900.267 888.692 898.415C888 898.183 887.078 897.951 886.156 897.951C883.389 897.951 880.623 899.109 878.548 901.425ZM870.939 916.939C867.712 912.308 867.481 907.908 869.787 903.046C870.017 902.582 870.248 902.119 870.478 901.425C873.014 894.015 882.467 890.31 889.845 892.394C896.761 894.478 902.064 903.277 901.603 909.297C901.372 914.16 900.681 918.791 896.3 921.338C893.533 922.959 889.845 924.117 885.925 924.117C880.392 924.58 874.628 922.264 870.939 916.939ZM976.993 915.781C973.996 916.012 971.691 917.865 971.691 920.18C971.921 922.959 973.766 925.043 976.532 924.811C979.299 924.58 981.374 922.033 981.143 918.791C981.143 916.707 979.76 915.549 977.454 915.549C977.224 915.781 977.224 915.781 976.993 915.781ZM967.31 922.033C965.927 916.012 969.846 911.613 976.993 910.687C981.835 909.992 985.754 913.697 985.985 919.254C986.215 921.57 985.293 923.653 984.602 925.737C983.91 927.821 982.527 928.979 980.682 929.674C979.299 930.137 978.146 930.368 976.763 930.368C972.382 930.6 968.463 927.358 967.31 922.033ZM900.45 925.043C901.372 924.58 902.294 923.885 902.986 923.19C909.903 915.318 911.286 902.814 905.753 893.552C902.756 888.226 897.914 885.216 891.689 885.216C889.845 885.216 888 885.216 886.156 885.448C879.7 886.142 875.32 890.079 871.17 894.478C870.248 895.404 869.787 896.562 868.864 897.257C862.409 902.814 863.101 916.475 869.556 922.727C873.245 926.201 877.395 928.284 882.467 928.516H885.464C890.767 928.748 895.608 927.127 900.45 925.043ZM871.4 931.989C862.639 926.432 858.951 918.559 858.72 908.603C858.72 905.129 858.951 901.888 860.334 898.878C863.101 892.626 867.02 887.3 873.014 883.827C882.236 878.501 891.92 875.723 901.833 882.437C907.367 886.142 911.747 891.236 914.053 897.488C916.128 903.509 915.897 909.76 914.053 916.012C911.055 925.969 903.678 931.989 893.995 934.768C890.997 935.694 888 936.157 885.003 936.157C880.392 935.926 875.781 934.768 871.4 931.989ZM963.621 913.697C962.699 915.549 961.546 917.402 962.007 919.254C962.007 927.127 966.849 934.073 974.227 935.926C977.685 936.852 980.913 935.694 984.14 934.536C989.904 931.989 992.21 927.127 991.979 919.949C991.749 913.465 985.063 906.982 979.991 905.824C979.299 905.593 978.377 905.593 977.454 905.593C971.921 905.593 965.466 909.066 963.621 913.697ZM976.532 942.409C970.768 942.409 965.466 940.557 961.316 936.157C957.858 932.452 957.166 927.59 956.244 922.959C954.63 914.391 959.241 905.593 966.849 902.351C973.074 899.804 979.299 900.035 985.524 902.351C987.599 903.045 989.674 903.972 990.827 905.593C994.746 910.918 997.974 916.475 997.743 923.422C997.282 930.368 994.285 935.463 988.29 938.936C984.602 940.788 980.913 942.409 976.532 942.409ZM965.235 895.636C957.166 898.414 949.558 906.056 950.249 914.16C950.71 923.885 951.633 931.526 955.783 938.241C959.241 943.798 964.082 946.577 970.307 946.808C976.532 946.808 982.757 946.345 988.521 943.798C995.207 940.788 1000.05 935.926 1001.89 928.748C1003.28 923.422 1003.05 917.865 1000.74 912.539C999.587 909.992 998.204 907.677 996.59 905.129C992.21 897.951 985.293 895.404 977.454 894.478C976.532 894.247 975.379 894.247 974.457 894.247C971.46 894.247 968.232 894.71 965.235 895.636ZM975.149 952.829C965.235 952.829 956.935 948.429 950.019 941.714C947.252 938.936 945.177 935.463 944.255 931.758C942.18 922.959 940.797 914.391 944.485 905.593C946.56 900.498 949.558 896.562 954.169 893.552C960.163 889.616 966.849 887.3 974.227 887.3C980.682 887.068 986.907 888.226 992.671 891.236C995.899 893.089 999.126 895.173 1001.2 898.646C1003.74 902.582 1005.58 906.519 1007.2 910.918C1011.35 922.496 1008.81 932.915 1001.2 941.946C994.515 949.587 985.293 952.829 975.149 952.829ZM1016.42 940.788C1015.27 943.335 1015.96 946.114 1018.26 948.198C1020.57 950.282 1023.33 951.671 1025.41 951.671C1028.64 951.671 1030.94 949.819 1031.63 946.808C1033.25 940.788 1029.79 936.157 1023.56 935.694H1023.1C1020.57 935.462 1017.57 937.778 1016.42 940.788ZM1009.5 943.335C1009.5 937.546 1015.96 928.053 1025.64 928.053C1033.02 928.053 1040.4 936.157 1040.4 944.03C1040.4 951.439 1032.79 958.618 1024.95 958.849H1024.49C1017.8 959.081 1009.5 953.292 1009.5 943.335ZM915.666 941.946C912.439 943.104 908.289 950.745 909.211 953.987C910.825 959.544 915.205 963.48 920.508 963.249C926.733 963.017 932.036 958.386 932.727 952.597C933.65 946.345 929.269 942.641 925.119 941.483C923.966 941.02 922.583 941.02 921.43 941.02C919.586 940.788 917.741 941.251 915.666 941.946ZM909.903 970.89C905.292 966.953 902.064 962.091 900.219 956.302C898.145 949.819 900.911 940.557 906.444 936.852C911.286 933.61 916.819 931.989 921.891 931.526C931.113 931.295 939.644 937.315 942.18 945.188C943.794 950.05 943.563 954.913 940.566 959.081C937.569 963.48 934.341 967.648 929.961 971.121C927.194 973.437 923.505 974.595 919.816 974.595C916.358 974.595 912.9 973.437 909.903 970.89ZM1048.46 976.678C1048.46 972.279 1053.31 967.416 1058.15 967.185C1062.53 967.185 1066.68 971.584 1066.91 976.678C1066.91 981.309 1063.45 984.783 1058.38 985.014H1058.15C1053.08 985.014 1048.46 981.078 1048.46 976.678ZM953.246 973.9C952.555 976.447 955.091 979.92 957.858 979.457C960.855 978.994 964.082 978.068 965.466 974.826C965.696 974.131 965.927 973.437 965.466 972.742C963.852 970.658 961.777 969.269 959.702 969.037C956.474 969.037 953.938 971.353 953.246 973.9ZM958.549 986.867C952.555 986.404 947.944 982.004 947.944 976.215C947.944 968.111 953.938 962.785 962.007 964.406C962.469 964.406 963.16 964.638 963.621 964.638C967.08 965.332 972.382 969.037 972.152 973.437C971.46 979.92 967.541 986.635 959.702 986.635C959.01 986.867 958.78 986.867 958.549 986.867ZM1007.43 988.024C1004.2 988.024 1002.35 986.404 1002.12 983.625C1002.12 980.846 1004.66 977.836 1006.97 977.836C1009.5 977.836 1012.27 980.383 1012.27 983.162C1012.73 985.94 1010.42 988.024 1007.43 988.024ZM1045.24 976.678C1045.24 981.309 1050.54 989.182 1055.61 988.951C1063.22 988.487 1070.14 983.162 1069.91 977.142C1069.68 970.89 1063.68 965.101 1057.46 965.101C1050.54 965.101 1045.24 970.195 1045.24 976.678ZM1044.31 995.202C1036.01 988.256 1030.71 972.974 1042.01 961.396C1048.46 954.913 1056.76 952.829 1064.6 956.302C1073.59 960.238 1078.44 967.185 1078.67 976.678C1078.44 986.172 1073.36 993.813 1065.06 997.286C1062.99 998.213 1060.68 998.213 1058.61 998.444C1057.46 998.676 1056.3 998.676 1054.92 998.676C1051 998.676 1047.31 997.981 1044.31 995.202ZM994.285 982.004C994.054 985.014 994.976 987.33 997.051 989.414C1001.2 993.582 1006.04 993.813 1011.35 992.424C1015.73 991.266 1019.88 985.94 1019.88 981.078C1020.11 976.447 1016.88 971.816 1012.27 970.195C1011.35 969.732 1010.19 969.732 1009.04 969.732H1008.58C1001.66 969.732 994.746 977.142 994.285 982.004ZM994.054 996.592C985.524 990.803 985.063 981.309 988.752 975.058C991.749 970.195 995.668 966.49 1000.97 964.175C1006.04 961.859 1011.12 961.628 1015.73 964.869C1018.95 967.185 1022.18 969.732 1024.26 973.205C1025.64 975.521 1026.56 978.068 1026.33 980.846C1026.33 986.867 1023.1 992.192 1017.8 994.971C1017.34 995.202 1016.65 995.666 1016.19 995.897C1012.5 998.676 1008.58 1000.07 1004.89 1000.07C1001.43 1000.3 997.743 999.139 994.054 996.592ZM963.852 1013.96C962.007 1012.11 961.316 1009.79 961.546 1007.24C962.238 1000.07 967.541 995.202 975.61 995.202C979.068 995.434 982.296 997.518 985.063 1000.53C988.29 1004 989.213 1008.17 987.138 1012.57C985.293 1016.74 982.066 1019.75 976.993 1019.75H976.532C971.23 1019.98 967.31 1017.66 963.852 1013.96ZM1083.97 1029.7C1078.9 1028.08 1075.67 1020.21 1076.59 1016.04C1077.74 1010.02 1082.36 1006.32 1088.35 1006.32C1092.5 1006.32 1096.65 1007.94 1099.42 1010.95C1106.1 1017.89 1101.49 1026.92 1095.96 1029.47C1094.11 1030.4 1092.04 1030.86 1090.19 1030.86C1088.35 1030.86 1086.04 1030.4 1083.97 1029.7ZM1016.65 1032.02C1016.65 1028.55 1020.11 1025.3 1024.26 1025.3C1027.95 1025.3 1031.63 1029.01 1031.63 1032.48C1031.63 1035.96 1027.95 1039.43 1024.03 1039.43C1020.11 1039.66 1016.65 1035.96 1016.65 1032.02ZM1077.28 1008.63C1075.67 1010.48 1074.06 1012.57 1072.9 1014.88C1069.44 1021.6 1072.44 1030.4 1079.36 1033.87C1086.74 1037.58 1093.88 1036.19 1100.8 1032.95C1102.64 1032.02 1104.03 1030.63 1104.95 1029.01C1107.72 1023.91 1108.87 1018.59 1106.79 1012.8C1104.03 1005.62 1099.65 1002.15 1091.12 1002.15C1085.35 1002.15 1080.97 1004.23 1077.28 1008.63ZM1087.43 1041.98H1085.12C1074.52 1041.28 1062.76 1030.17 1064.14 1017.89C1064.83 1012.34 1066.22 1007.24 1070.83 1003.77C1076.59 999.37 1082.59 996.592 1091.12 996.36C1097.8 996.592 1104.03 999.602 1108.64 1005.85C1112.1 1010.72 1113.48 1016.04 1113.02 1021.83C1112.56 1028.08 1109.79 1033.41 1104.72 1036.88C1099.42 1040.12 1093.65 1041.98 1087.43 1041.98ZM1020.57 1021.37C1018.49 1022.53 1016.65 1023.68 1014.8 1025.3C1012.27 1027.62 1011.12 1033.41 1012.5 1036.88C1014.34 1041.28 1017.11 1043.6 1022.18 1043.6C1026.1 1042.67 1031.17 1042.67 1034.4 1038.27C1037.4 1034.1 1036.71 1027.62 1032.79 1024.38C1031.4 1023.22 1030.02 1022.29 1028.41 1021.6C1027.02 1020.9 1025.87 1020.67 1024.49 1020.67C1022.87 1020.44 1021.72 1020.67 1020.57 1021.37ZM1006.27 1033.87C1006.04 1030.17 1007.66 1026.92 1009.5 1023.91C1012.96 1018.59 1017.8 1015.58 1024.26 1015.58C1030.25 1015.35 1034.4 1018.36 1037.86 1023.22C1043.39 1031.09 1040.16 1041.74 1032.33 1045.45C1029.1 1047.07 1025.87 1048 1022.41 1048.46C1021.72 1048.46 1021.03 1048.69 1020.34 1048.69C1012.27 1048.69 1006.5 1041.28 1006.27 1033.87ZM1113.48 1055.87C1113.48 1054.25 1114.86 1052.86 1116.71 1052.86C1118.55 1052.86 1120.4 1054.25 1120.4 1056.1C1120.4 1057.72 1119.01 1059.11 1117.17 1059.34H1116.94C1115.09 1059.34 1113.71 1057.72 1113.48 1055.87ZM1015.96 1011.64C1012.04 1013.73 1008.58 1016.27 1005.58 1019.52C1001.89 1023.45 1000.51 1028.55 999.587 1033.87C1000.97 1041.98 1004.2 1048.92 1012.5 1052.4C1021.95 1056.33 1030.71 1055.64 1037.86 1047.3C1039.47 1045.45 1041.32 1043.83 1042.93 1041.98C1045.7 1038.97 1046.16 1035.26 1045.93 1031.56C1045.7 1025.54 1042.93 1020.44 1039.47 1015.81C1037.86 1013.49 1035.32 1012.34 1032.79 1011.18C1030.02 1010.02 1027.48 1009.56 1024.72 1009.56C1021.72 1009.33 1018.72 1010.02 1015.96 1011.64ZM1011.35 1059.57C999.126 1057.72 992.44 1047.07 992.44 1036.19C992.44 1030.86 994.976 1026 997.051 1021.14C999.357 1015.81 1002.82 1011.64 1007.89 1008.4C1013.88 1004.7 1020.34 1003.08 1027.48 1003.08C1031.17 1002.84 1038.32 1005.62 1041.09 1007.94C1047.08 1013.03 1050.31 1019.52 1051.69 1027.16C1051.92 1028.55 1052.15 1030.17 1052.15 1031.56C1050.08 1045.68 1040.4 1055.41 1027.25 1059.34C1025.18 1060.04 1022.87 1060.27 1020.8 1060.27C1017.57 1060.5 1014.34 1060.04 1011.35 1059.57ZM1123.86 1051.93C1120.17 1045.68 1115.79 1047.07 1111.41 1050.08C1108.87 1051.7 1108.87 1055.87 1110.71 1058.18C1112.56 1060.27 1114.86 1061.89 1117.63 1061.89C1122.7 1061.89 1127.08 1057.26 1123.86 1051.93ZM1103.8 1053.55C1103.8 1047.07 1109.79 1042.21 1117.86 1042.21C1125.01 1042.21 1131.23 1048.23 1131.23 1055.17C1131.23 1061.66 1124.55 1067.68 1116.94 1067.91H1116.71C1110.25 1067.68 1104.03 1060.73 1103.8 1053.55ZM1079.36 1080.64C1071.52 1080.64 1063.45 1071.85 1063.45 1063.74C1063.45 1055.17 1071.06 1048.23 1079.82 1048.23C1088.81 1048.23 1095.96 1055.87 1096.19 1064.9C1096.65 1074.39 1086.04 1080.41 1079.36 1080.64ZM1121.55 1100.33C1121.55 1101.95 1123.16 1103.34 1125.24 1103.34C1127.77 1103.34 1129.85 1101.72 1129.85 1099.17C1129.85 1097.55 1128.01 1095.93 1125.93 1095.93C1123.39 1096.16 1121.78 1097.55 1121.55 1100.33ZM1116.25 1099.86C1116.25 1094.31 1121.09 1089.67 1127.08 1089.67C1131.46 1089.67 1135.61 1093.84 1135.84 1098.01C1135.84 1102.87 1130.77 1108.43 1126.16 1108.43C1121.78 1108.43 1115.79 1105.19 1116.25 1099.86ZM1079.59 1101.72C1079.59 1104.26 1082.59 1107.27 1085.12 1107.27C1088.12 1107.27 1091.35 1103.8 1091.35 1100.56C1091.35 1098.01 1088.81 1096.39 1085.35 1096.39C1082.13 1096.39 1079.36 1098.71 1079.59 1101.72ZM1084.89 1112.37C1083.97 1112.37 1083.28 1112.37 1082.36 1111.9C1076.82 1110.28 1072.21 1104.96 1074.52 1098.47C1076.13 1093.61 1079.82 1091.06 1085.81 1091.06C1090.19 1091.06 1094.34 1093.84 1095.5 1097.32C1097.8 1104.03 1092.04 1112.37 1084.89 1112.37ZM1114.17 1089.91C1112.1 1092.45 1110.25 1095.23 1110.94 1098.47C1110.71 1104.03 1113.25 1107.97 1117.63 1110.75C1119.47 1112.14 1121.55 1113.06 1123.62 1113.99C1126.16 1114.91 1128.7 1115.15 1130.77 1113.76C1136.77 1109.36 1141.38 1104.03 1142.07 1096.39C1142.3 1092.69 1141.15 1089.68 1137.69 1087.82C1134.92 1086.2 1132.62 1084.35 1129.39 1083.89C1128.47 1083.65 1127.54 1083.65 1126.85 1083.65C1121.55 1083.65 1117.4 1085.74 1114.17 1089.91ZM1111.64 1116.3C1102.87 1110.51 1101.03 1101.25 1104.03 1091.99C1106.1 1085.04 1110.48 1079.26 1116.71 1075.09C1118.32 1074.16 1119.94 1073.47 1121.78 1073.23C1128.24 1072.77 1134 1074.62 1139.3 1078.33C1145.3 1082.5 1148.52 1088.05 1148.29 1095.93C1148.52 1097.78 1148.06 1100.09 1147.37 1102.18C1146.45 1105.65 1144.84 1109.13 1143.22 1112.37C1141.15 1116.53 1137.69 1119.31 1133.08 1120.47C1131 1120.93 1128.93 1121.17 1127.08 1121.17C1121.78 1121.4 1116.71 1119.54 1111.64 1116.3ZM1100.11 1148.26C1100.11 1144.78 1103.34 1141.31 1107.02 1141.31C1110.48 1141.31 1113.71 1144.55 1113.71 1148.26C1113.71 1151.96 1111.17 1154.51 1107.02 1154.51C1103.34 1154.51 1100.34 1151.73 1100.11 1148.26ZM1132.62 1145.71C1132.62 1140.15 1137.69 1135.06 1143.68 1135.06C1149.22 1135.06 1154.98 1140.38 1155.21 1145.94C1155.44 1151.73 1150.14 1157.52 1144.6 1157.52H1144.37C1138.15 1157.52 1132.62 1152.19 1132.62 1145.71ZM1094.81 1145.48C1093.19 1149.41 1096.42 1155.67 1100.57 1157.29C1107.02 1159.83 1114.86 1157.06 1117.63 1151.04C1119.47 1147.1 1117.4 1138.3 1113.71 1135.75C1112.33 1134.83 1110.48 1134.6 1108.87 1134.83C1101.72 1134.83 1097.34 1139.23 1094.81 1145.48ZM1100.11 1163.08C1092.5 1161.22 1088.58 1155.9 1086.97 1148.49C1085.35 1141.54 1087.43 1135.75 1093.19 1131.59C1095.96 1129.5 1098.96 1128.11 1102.18 1127.19C1108.64 1125.57 1114.63 1126.26 1119.24 1131.59C1123.62 1136.68 1124.78 1142.47 1123.86 1148.95C1122.7 1158.91 1115.32 1163.08 1106.1 1163.77C1104.26 1163.54 1101.95 1163.54 1100.11 1163.08ZM1095.04 1175.81C1092.5 1175.81 1090.43 1177.9 1090.43 1180.21C1090.66 1183.22 1093.88 1186.46 1096.65 1186.46C1098.72 1186.46 1100.34 1184.84 1100.34 1182.76C1100.34 1179.05 1097.8 1175.81 1095.04 1175.81ZM1085.12 1179.98C1085.12 1175.35 1089.73 1170.95 1094.81 1170.95C1100.57 1170.95 1105.64 1176.27 1105.64 1182.76C1106.33 1188.32 1101.03 1191.09 1095.96 1191.09H1095.73C1090.66 1191.33 1085.35 1185.54 1085.12 1179.98ZM1140.45 1188.55C1140.22 1188.55 1139.76 1188.55 1139.53 1188.78C1136.54 1189.24 1135.84 1190.17 1135.84 1193.18C1135.84 1196.65 1137.23 1198.5 1140.45 1199.66C1142.99 1200.36 1145.53 1199.2 1146.45 1196.42C1147.14 1194.34 1146.45 1192.25 1145.3 1190.63C1144.37 1189.24 1143.22 1188.55 1141.61 1188.55H1140.45ZM1129.16 1193.87C1129.16 1186.93 1134.23 1182.3 1141.84 1182.06C1148.06 1182.06 1152.44 1187.39 1152.67 1195.26C1152.67 1200.82 1147.6 1205.45 1141.38 1205.68H1140.69C1133.08 1205.68 1129.39 1199.89 1129.16 1193.87ZM1142.53 1171.18C1139.99 1171.18 1137.46 1171.41 1135.15 1172.11C1131.46 1173.03 1128.7 1175.35 1126.39 1178.59C1122.7 1184.15 1122.47 1189.7 1124.32 1195.96C1125.47 1200.12 1127.08 1204.06 1130.31 1207.07C1136.54 1213.09 1147.14 1212.4 1153.14 1205.91C1155.67 1203.13 1157.98 1199.89 1159.13 1196.42C1161.2 1189.94 1160.74 1183.68 1156.36 1178.13C1155.21 1176.74 1153.83 1175.35 1152.44 1174.19C1150.14 1172.11 1147.37 1171.18 1144.37 1171.18C1143.68 1170.95 1143.22 1171.18 1142.53 1171.18ZM1135.84 1216.8C1133.08 1216.56 1130.77 1215.87 1128.47 1214.48C1118.55 1208.23 1113.94 1197.35 1115.56 1185.54C1116.48 1178.59 1120.17 1173.5 1125.7 1169.33C1131.23 1165.39 1137.23 1163.54 1143.45 1164C1150.6 1163.08 1156.59 1164.93 1161.2 1170.02C1168.81 1178.36 1170.66 1188.08 1167.66 1198.97C1165.35 1206.84 1159.59 1211.47 1152.44 1214.71C1148.52 1216.33 1144.37 1217.03 1140.22 1217.03C1138.61 1216.8 1137.23 1216.8 1135.84 1216.8ZM1093.42 1229.07C1085.12 1229.07 1079.36 1223.05 1079.36 1214.25C1079.36 1207.53 1085.35 1201.51 1092.27 1201.51C1098.26 1201.51 1107.49 1206.61 1107.26 1216.8C1107.26 1223.28 1100.57 1229.07 1093.42 1229.07ZM1065.99 1251.3C1064.83 1253.84 1064.83 1256.62 1065.99 1259.4C1066.68 1261.02 1068.29 1261.72 1069.91 1261.95C1071.75 1262.18 1073.59 1261.72 1074.98 1259.86C1075.67 1258.94 1076.13 1257.78 1076.36 1256.85C1077.98 1252.22 1075.21 1248.29 1070.14 1248.29H1069.91C1067.83 1248.29 1066.68 1249.68 1065.99 1251.3ZM1059.76 1265.88C1057.92 1264.03 1056.53 1261.95 1055.61 1259.4C1053.77 1253.38 1056.53 1248.52 1059.53 1243.66C1060.68 1241.8 1062.07 1240.41 1064.14 1239.49C1071.06 1236.48 1081.2 1239.26 1085.35 1245.74C1088.81 1251.07 1089.27 1256.62 1086.97 1262.64C1084.2 1269.82 1080.28 1272.6 1072.21 1272.6H1071.06C1066.68 1272.6 1062.99 1269.36 1059.76 1265.88ZM1042.24 1275.15C1039.7 1275.15 1037.63 1277.23 1037.63 1279.55C1037.63 1282.56 1039.47 1284.87 1041.78 1284.87C1044.08 1284.87 1046.85 1282.32 1046.85 1280.24C1046.85 1277.46 1044.78 1275.15 1042.24 1275.15ZM1031.63 1279.55C1031.63 1274.45 1036.25 1270.05 1042.01 1270.05C1048 1270.28 1051.92 1275.38 1052.15 1280.24C1052.61 1286.96 1046.62 1290.2 1040.63 1290.89H1040.16C1036.01 1290.66 1031.63 1284.87 1031.63 1279.55ZM1065.06 1292.98C1061.84 1292.98 1058.61 1289.97 1058.84 1286.96C1058.84 1283.95 1062.76 1280.24 1065.53 1280.24C1068.52 1280.24 1071.75 1283.71 1071.75 1286.72C1071.75 1289.97 1068.29 1292.98 1065.06 1292.98ZM877.856 1293.9C877.856 1299.23 881.775 1303.63 886.386 1303.86C893.533 1304.09 897.683 1300.15 897.453 1293.9C897.453 1288.81 891.92 1282.79 887.078 1282.79C881.545 1282.56 878.086 1286.96 877.856 1293.9ZM886.617 1309.65C885.234 1309.42 884.081 1309.18 882.698 1309.18C880.853 1308.95 879.239 1308.26 878.086 1307.1C872.784 1302.24 869.556 1296.45 871.17 1288.81C872.323 1283.48 875.089 1279.31 880.161 1277.23C893.072 1271.91 905.983 1280.7 905.292 1294.37C905.983 1298.76 903.678 1302.47 900.219 1305.71C897.222 1308.49 893.764 1310.34 889.845 1310.34C888.692 1309.88 887.77 1309.88 886.617 1309.65ZM1015.96 1314.74C1010.65 1314.74 1007.89 1310.57 1007.43 1305.48C1007.2 1302.24 1011.35 1299 1015.03 1298.76C1019.41 1298.76 1023.1 1302.47 1023.1 1307.1C1023.1 1311.5 1020.11 1314.74 1015.96 1314.74ZM974.688 1301.54C972.152 1301.54 970.077 1303.63 970.077 1305.94C970.077 1308.95 971.921 1311.27 974.227 1311.27C976.532 1311.27 979.299 1308.72 979.299 1306.64C979.299 1303.86 977.454 1301.54 974.688 1301.54ZM964.082 1305.94C964.082 1300.85 968.693 1296.45 974.457 1296.45C980.452 1296.68 984.371 1301.78 984.602 1306.64C985.063 1313.35 978.838 1316.59 973.074 1317.29H972.613C968.694 1317.06 964.313 1311.27 964.082 1305.94ZM1012.27 1293.44C1010.42 1293.67 1008.81 1294.13 1007.43 1295.29C1004.89 1297.14 1003.05 1299.46 1002.12 1302.47C1000.51 1307.56 1003.05 1311.5 1006.04 1314.97C1010.19 1319.6 1015.96 1320.76 1021.72 1318.45C1023.56 1317.75 1024.95 1316.36 1025.87 1314.51C1026.79 1312.19 1027.25 1309.88 1027.25 1307.1C1026.79 1298.76 1022.41 1293.44 1014.11 1293.44C1013.42 1293.21 1012.96 1293.44 1012.27 1293.44ZM1011.35 1324.24C1004.2 1322.15 998.896 1318.22 997.051 1310.57C995.899 1305.71 996.129 1300.85 998.435 1296.45C1001.2 1290.66 1010.42 1286.96 1017.11 1288.11C1026.1 1289.97 1033.48 1299 1033.48 1308.72C1033.71 1312.89 1032.1 1316.59 1028.64 1319.6C1026.56 1321.46 1024.26 1322.38 1021.72 1323.54C1019.65 1324.47 1017.57 1324.93 1015.5 1324.93C1014.34 1324.93 1012.96 1324.7 1011.35 1324.24ZM926.733 1334.66C922.814 1333.96 919.355 1331.88 916.589 1328.87C911.517 1323.08 911.747 1316.13 913.592 1309.18C916.128 1299.92 925.119 1294.83 935.033 1293.9C937.569 1293.9 940.105 1294.37 942.872 1294.83C948.405 1295.75 955.783 1301.78 956.935 1308.49C957.627 1313.12 957.396 1317.75 956.474 1322.15C955.783 1326.09 953.938 1329.33 950.48 1331.41C947.713 1333.27 944.486 1334.42 941.258 1335.12C939.644 1335.58 938.03 1335.58 936.416 1335.58C932.958 1335.81 929.961 1335.12 926.733 1334.66ZM978.607 1341.37C973.535 1341.37 968.924 1336.97 968.924 1332.34C968.924 1327.71 974.918 1322.15 979.299 1322.15C983.679 1322.15 988.752 1327.48 988.752 1332.11C988.752 1336.74 983.679 1341.37 978.607 1341.37Z" fill="#275497"/>
</g>
</g>
<g opacity="0.5" clip-path="url(#clip0_3002_16)">
<path d="M1793.17 194.878C1792.77 194.702 1792.4 194.446 1792.1 194.125C1791.8 193.804 1791.56 193.425 1791.41 193.01C1769.26 134.635 1791.38 118.435 1801.94 114.178C1821.73 106.189 1850.56 118.484 1859.11 138.496C1863.63 149.135 1868.21 176.578 1812.86 201.537C1812.46 201.716 1812.04 201.816 1811.6 201.829C1811.17 201.843 1810.73 201.771 1810.33 201.617C1809.92 201.463 1809.55 201.231 1809.23 200.933C1808.91 200.635 1808.66 200.278 1808.48 199.881C1808.3 199.484 1808.2 199.056 1808.19 198.621C1808.18 198.186 1808.25 197.752 1808.4 197.345C1808.56 196.938 1808.79 196.565 1809.09 196.248C1809.38 195.93 1809.74 195.675 1810.14 195.496C1845.31 179.591 1860.95 159.718 1852.95 141.103C1845.83 124.346 1820.86 113.683 1804.37 120.32C1785.93 127.797 1783.45 153.402 1797.58 190.636C1797.89 191.458 1797.87 192.371 1797.52 193.176C1797.16 193.982 1796.5 194.615 1795.68 194.937C1795.28 195.093 1794.85 195.168 1794.42 195.158C1793.99 195.148 1793.56 195.053 1793.17 194.878Z" fill="#19417A"/>
<path d="M1780.21 232.381C1776.28 230.632 1773.12 227.519 1771.32 223.617C1770.33 221.534 1769.78 219.273 1769.69 216.97C1769.6 214.667 1769.97 212.369 1770.79 210.214C1772.46 205.84 1775.79 202.303 1780.06 200.374C1784.32 198.445 1789.17 198.281 1793.55 199.917L1806.24 204.69C1810.6 206.402 1814.1 209.77 1815.99 214.059C1817.88 218.349 1818 223.213 1816.32 227.592C1814.61 231.933 1811.27 235.437 1807.02 237.361C1802.77 239.286 1797.94 239.479 1793.55 237.901L1780.96 232.74L1780.21 232.381ZM1804.32 211.096L1803.85 210.892L1791.2 206.118C1788.46 205.101 1785.42 205.214 1782.76 206.433C1780.09 207.652 1778.02 209.877 1776.99 212.622C1776.49 213.936 1776.26 215.337 1776.32 216.741C1776.38 218.145 1776.72 219.523 1777.33 220.79C1777.91 222.102 1778.75 223.285 1779.8 224.268C1780.84 225.251 1782.07 226.016 1783.42 226.517L1796 231.672C1798.75 232.597 1801.74 232.435 1804.37 231.218C1807 230.002 1809.06 227.823 1810.13 225.132C1811.15 222.491 1811.11 219.562 1810.03 216.95C1808.94 214.339 1806.9 212.243 1804.32 211.096Z" fill="#19417A"/>
<path d="M1797.52 196.8C1796.89 196.521 1796.36 196.05 1796.01 195.454C1795.66 194.859 1795.5 194.168 1795.56 193.478C1799.58 144.451 1815.76 118.785 1829.01 115.664C1831.2 115.081 1833.51 115.24 1835.59 116.116C1837.67 116.993 1839.4 118.538 1840.5 120.507C1847.59 132.335 1840.18 160.86 1807.68 197.917C1807.2 198.472 1806.54 198.852 1805.82 198.996C1805.1 199.14 1804.35 199.04 1803.69 198.712C1803.04 198.384 1802.5 197.847 1802.18 197.184C1801.86 196.522 1801.77 195.772 1801.93 195.052C1801.66 195.698 1801.19 196.242 1800.59 196.602C1799.99 196.963 1799.29 197.122 1798.59 197.057C1798.22 197.035 1797.86 196.948 1797.52 196.8ZM1833.07 122.263C1832.26 121.945 1831.37 121.907 1830.53 122.154C1821.69 124.211 1806.15 145.562 1802.18 194.028C1802.13 194.147 1802.14 194.309 1802.12 194.426C1802.26 194.105 1802.45 193.805 1802.68 193.539C1834.63 157.119 1839.34 131.504 1834.8 123.964C1834.41 123.231 1833.8 122.636 1833.07 122.263Z" fill="#19417A"/>
</g>
<g opacity="0.5" clip-path="url(#clip1_3002_16)">
<path d="M329.33 816C329.143 815.997 328.959 815.956 328.788 815.881C328.617 815.805 328.463 815.697 328.334 815.561C328.206 815.425 328.106 815.265 328.04 815.089C327.973 814.914 327.943 814.728 327.949 814.54L333.985 595.779C334.015 595.409 334.18 595.063 334.448 594.808C334.717 594.554 335.071 594.408 335.44 594.399C335.627 594.403 335.811 594.444 335.982 594.519C336.152 594.595 336.306 594.704 336.435 594.84C336.563 594.975 336.663 595.135 336.73 595.31C336.796 595.485 336.827 595.672 336.821 595.859L330.785 814.62C330.78 814.807 330.738 814.99 330.663 815.161C330.587 815.331 330.478 815.484 330.343 815.613C330.208 815.741 330.049 815.841 329.875 815.907C329.701 815.974 329.516 816.005 329.33 816Z" fill="#19417A"/>
<path d="M368.37 607.056C368.238 607.055 368.108 607.037 367.981 607.001C304.879 588.69 305.681 585.581 306.065 584.081C307.062 580.752 346.963 498.213 351.509 488.81C351.665 488.478 351.944 488.221 352.286 488.092C352.629 487.963 353.008 487.973 353.343 488.12L414.148 514.005C414.504 514.166 414.783 514.46 414.925 514.825C414.991 515.008 415.02 515.204 415.009 515.399C414.998 515.594 414.947 515.785 414.86 515.96L369.641 606.277C369.522 606.512 369.34 606.709 369.115 606.847C368.891 606.985 368.633 607.057 368.37 607.056ZM309.035 584.246C313.022 587.13 341.431 596.309 367.632 603.937L411.641 516.029L353.473 491.264C341.292 516.489 312.075 577.092 309.035 584.246Z" fill="#19417A"/>
<path d="M371.041 597.528C370.882 597.529 370.723 597.502 370.573 597.448L316.093 578.392C315.744 578.262 315.459 578.001 315.301 577.663C315.142 577.325 315.122 576.938 315.245 576.586C315.368 576.234 315.624 575.944 315.957 575.779C316.291 575.613 316.676 575.586 317.03 575.703L371.51 594.744C371.829 594.852 372.099 595.071 372.271 595.361C372.444 595.651 372.508 595.994 372.451 596.327C372.395 596.66 372.222 596.962 371.963 597.178C371.705 597.395 371.378 597.512 371.041 597.508V597.528Z" fill="#19417A"/>
<path d="M357.42 512.04C354.395 512.04 351.938 509.236 351.938 505.787C351.938 502.417 354.4 499.673 357.42 499.673C360.525 499.673 363.052 502.417 363.052 505.787C363.052 509.296 360.58 512.04 357.42 512.04ZM357.42 502.512C355.985 502.512 354.763 504.012 354.763 505.787C354.763 507.671 355.955 509.201 357.42 509.201C358.99 509.201 360.216 507.701 360.216 505.787C360.231 503.957 358.99 502.512 357.42 502.512Z" fill="#19417A"/>
<path d="M371.883 518.874C368.853 518.874 366.401 516.064 366.401 512.615C366.401 509.166 368.863 506.496 371.883 506.496C374.904 506.496 377.366 509.241 377.366 512.615C377.366 515.989 374.914 518.874 371.883 518.874ZM371.883 509.341C370.448 509.341 369.227 510.84 369.227 512.615C369.227 514.495 370.418 516.029 371.883 516.029C373.349 516.029 374.54 514.495 374.54 512.615C374.54 510.84 373.319 509.341 371.883 509.341Z" fill="#19417A"/>
<path d="M386.905 523.708C383.825 523.708 381.423 520.958 381.423 517.454C381.423 514.06 383.94 511.195 386.905 511.195C389.871 511.195 392.388 514.06 392.388 517.454C392.388 520.848 389.935 523.708 386.905 523.708ZM386.905 514.035C385.495 514.035 384.254 515.634 384.254 517.454C384.254 519.274 385.44 520.863 386.905 520.863C388.37 520.863 389.562 519.334 389.562 517.454C389.562 515.574 388.321 514.035 386.905 514.035Z" fill="#19417A"/>
<path d="M398.418 529.537C395.313 529.537 392.791 526.797 392.791 523.423C392.791 519.924 395.258 517.164 398.418 517.164C401.449 517.164 403.901 519.974 403.901 523.423C403.911 526.797 401.449 529.537 398.418 529.537ZM398.418 520.009C396.853 520.009 395.622 521.508 395.622 523.423C395.622 525.227 396.878 526.692 398.418 526.692C399.854 526.692 401.075 525.192 401.075 523.423C401.1 521.543 399.884 520.009 398.418 520.009Z" fill="#19417A"/>
<path d="M349.002 527.547C345.842 527.547 343.37 524.798 343.37 521.289C343.37 517.859 345.862 515.175 349.002 515.175C352.022 515.175 354.484 517.919 354.484 521.289C354.484 524.758 352.022 527.547 349.002 527.547ZM349.002 518.019C347.432 518.019 346.206 519.454 346.206 521.289C346.206 523.208 347.432 524.703 349.002 524.703C350.462 524.703 351.648 523.173 351.648 521.289C351.648 519.519 350.437 518.019 349.002 518.019Z" fill="#19417A"/>
<path d="M363.316 534.376C360.296 534.376 357.834 531.567 357.834 528.117C357.834 524.668 360.296 522.003 363.316 522.003C366.336 522.003 368.948 524.803 368.948 528.117C368.948 531.567 366.421 534.376 363.316 534.376ZM363.316 524.848C361.881 524.848 360.664 526.348 360.664 528.117C360.664 529.997 361.856 531.532 363.316 531.532C364.776 531.532 366.112 529.967 366.112 528.117C366.112 526.373 364.806 524.848 363.316 524.848Z" fill="#19417A"/>
<path d="M378.343 539.07C375.312 539.07 372.86 536.325 372.86 532.951C372.86 529.577 375.322 526.692 378.343 526.692C381.363 526.692 383.825 529.502 383.825 532.951C383.825 536.4 381.368 539.07 378.343 539.07ZM378.343 529.537C376.877 529.537 375.686 531.072 375.686 532.951C375.686 534.726 376.902 536.225 378.343 536.225C379.783 536.225 380.994 534.726 380.994 532.951C380.994 531.072 379.808 529.537 378.343 529.537Z" fill="#19417A"/>
<path d="M389.851 545.044C386.801 545.044 384.229 542.244 384.229 538.93C384.229 535.481 386.751 532.671 389.851 532.671C392.951 532.671 395.333 535.421 395.333 538.93C395.343 542.299 392.881 545.044 389.851 545.044ZM389.851 535.516C388.356 535.516 387.06 537.075 387.06 538.93C387.06 540.67 388.366 542.199 389.851 542.199C391.336 542.199 392.507 540.7 392.507 538.93C392.507 537.045 391.316 535.516 389.851 535.516Z" fill="#19417A"/>
<path d="M341.556 541.484C338.526 541.484 336.073 538.745 336.073 535.375C336.073 531.926 338.536 529.117 341.556 529.117C344.661 529.117 347.188 531.926 347.188 535.375C347.188 538.685 344.606 541.484 341.556 541.484ZM341.556 531.956C340.091 531.956 338.899 533.491 338.899 535.375C338.899 537.145 340.12 538.645 341.556 538.645C342.991 538.645 344.352 537.115 344.352 535.375C344.352 533.521 343.071 531.956 341.556 531.956Z" fill="#19417A"/>
<path d="M356.019 548.313C352.989 548.313 350.537 545.574 350.537 542.199C350.537 538.825 352.999 535.94 356.019 535.94C359.04 535.94 361.502 538.75 361.502 542.199C361.502 545.649 359.045 548.313 356.019 548.313ZM356.019 538.785C354.554 538.785 353.363 540.32 353.363 542.199C353.363 543.969 354.584 545.469 356.019 545.469C357.455 545.469 358.676 543.969 358.676 542.199C358.676 540.32 357.485 538.785 356.019 538.785Z" fill="#19417A"/>
<path d="M371.041 553.152C367.936 553.152 365.409 550.342 365.409 546.893C365.409 543.579 367.991 540.779 371.041 540.779C374.091 540.779 376.524 543.519 376.524 546.893C376.524 550.267 374.071 553.152 371.041 553.152ZM371.041 543.619C369.546 543.619 368.245 545.148 368.245 546.893C368.245 548.743 369.526 550.307 371.041 550.307C372.556 550.307 373.688 548.753 373.688 546.893C373.688 545.118 372.477 543.619 371.041 543.619Z" fill="#19417A"/>
<path d="M382.415 559.121C379.384 559.121 376.932 556.317 376.932 552.867C376.932 549.498 379.394 546.749 382.415 546.749C385.52 546.749 388.042 549.498 388.042 552.867C388.042 556.377 385.575 559.121 382.415 559.121ZM382.415 549.593C380.979 549.593 379.758 551.093 379.758 552.867C379.758 554.752 380.949 556.277 382.415 556.277C383.98 556.277 385.211 554.777 385.211 552.867C385.211 551.063 383.955 549.593 382.415 549.593Z" fill="#19417A"/>
<path d="M337.2 556.137C334.1 556.137 331.578 553.327 331.578 549.878C331.578 546.564 334.15 543.764 337.2 543.764C340.25 543.764 342.682 546.509 342.682 549.878C342.692 553.327 340.23 556.137 337.2 556.137ZM337.2 546.604C335.705 546.604 334.414 548.138 334.414 549.878C334.414 551.733 335.69 553.297 337.2 553.297C338.71 553.297 339.856 551.763 339.856 549.878C339.856 548.103 338.64 546.604 337.2 546.604Z" fill="#19417A"/>
<path d="M351.524 562.965C348.499 562.965 346.041 560.221 346.041 556.852C346.041 553.402 348.504 550.593 351.524 550.593C354.684 550.593 357.156 553.342 357.156 556.852C357.156 560.221 354.629 562.965 351.524 562.965ZM351.524 553.437C350.059 553.437 348.867 554.967 348.867 556.852C348.867 558.621 350.088 560.121 351.524 560.121C353.069 560.121 354.32 558.656 354.32 556.852C354.32 554.907 353.114 553.437 351.524 553.437Z" fill="#19417A"/>
<path d="M366.551 567.799C363.52 567.799 361.068 564.99 361.068 561.54C361.068 558.171 363.53 555.432 366.551 555.432C369.656 555.432 372.178 558.171 372.178 561.54C372.192 565.05 369.7 567.799 366.551 567.799ZM366.551 558.271C365.11 558.271 363.894 559.771 363.894 561.54C363.894 563.425 365.08 564.96 366.551 564.96C368.116 564.96 369.342 563.46 369.342 561.54C369.342 559.751 368.091 558.251 366.551 558.251V558.271Z" fill="#19417A"/>
<path d="M378.059 573.633C375.033 573.633 372.576 570.888 372.576 567.514C372.576 564.14 375.038 561.26 378.059 561.26C381.079 561.26 383.541 564.005 383.541 567.514C383.551 570.888 381.089 573.633 378.059 573.633ZM378.059 564.105C376.593 564.105 375.407 565.634 375.407 567.514C375.407 569.289 376.623 570.788 378.059 570.788C379.494 570.788 380.715 569.289 380.715 567.514C380.715 565.634 379.524 564.105 378.059 564.105Z" fill="#19417A"/>
<path d="M329.2 570.359C326.175 570.359 323.718 567.619 323.718 564.245C323.718 560.871 326.18 557.986 329.2 557.986C332.306 557.986 334.832 560.796 334.832 564.245C334.812 567.559 332.256 570.359 329.2 570.359ZM329.2 560.831C327.735 560.831 326.544 562.36 326.544 564.245C326.544 566.015 327.765 567.514 329.2 567.514C330.636 567.514 331.997 565.985 331.997 564.245C331.997 562.39 330.716 560.831 329.2 560.831Z" fill="#19417A"/>
<path d="M343.664 577.328C340.639 577.328 338.182 574.523 338.182 571.074C338.182 567.624 340.644 564.96 343.664 564.96C346.684 564.96 349.146 567.699 349.146 571.074C349.146 574.448 346.689 577.328 343.664 577.328ZM343.664 567.799C342.229 567.799 341.008 569.299 341.008 571.074C341.008 572.953 342.199 574.488 343.664 574.488C345.129 574.488 346.316 572.953 346.316 571.074C346.316 569.299 345.099 567.799 343.664 567.799Z" fill="#19417A"/>
<path d="M358.681 582.026C355.631 582.026 353.059 579.227 353.059 575.908C353.059 572.458 355.581 569.649 358.681 569.649C361.781 569.649 364.163 572.458 364.163 575.908C364.173 579.282 361.726 582.026 358.681 582.026ZM358.681 572.493C357.186 572.493 355.895 574.053 355.895 575.908C355.895 577.652 357.201 579.182 358.681 579.182C360.161 579.182 361.337 577.682 361.337 575.908C361.337 574.028 360.151 572.493 358.681 572.493Z" fill="#19417A"/>
<path d="M370.059 588C367.034 588 364.577 585.251 364.577 581.881C364.577 578.382 366.984 575.627 370.059 575.627C373.134 575.627 375.681 578.372 375.681 581.881C375.681 585.246 373.159 588 370.059 588ZM370.059 578.472C368.594 578.472 367.403 579.972 367.403 581.881C367.403 583.656 368.624 585.156 370.059 585.156C371.599 585.156 372.85 583.686 372.85 581.881C372.85 579.967 371.624 578.472 370.059 578.472Z" fill="#19417A"/>
<path d="M401.508 583.586L401.369 583.446H401.229L401.09 583.301H400.95V583.161H400.806H400.666H400.526H400.387H400.247L400.108 583.301H399.963H399.824L399.684 583.446L399.545 583.586L399.405 583.731L399.266 583.871V584.016V584.156H399.121V584.301V584.441V584.586V584.726V584.866V585.011L399.266 585.151V585.296L399.405 585.436V585.581H399.545L401.508 583.586Z" fill="#19417A"/>
<path d="M403.477 585.581L401.648 587.57L399.545 585.581L401.508 583.586L403.477 585.581Z" fill="#19417A"/>
<path d="M401.648 587.57V587.715H401.792L401.932 587.855H402.072L402.211 587.995H402.351H402.49H402.635H402.774H402.914L403.053 587.855H403.193L403.332 587.715L403.477 587.57H403.617V587.43L403.756 587.285V587.145L403.896 587V586.86V586.715V586.575V586.43V586.29V586.15V586.005L403.756 585.866V585.721L403.617 585.581H403.477L401.648 587.57Z" fill="#19417A"/>
<path d="M409.652 591.409L409.513 591.269H409.373L409.234 591.124H409.089L408.949 590.984H408.81H408.67H408.531H408.391L408.252 591.124H408.107H407.968L407.828 591.269L407.688 591.409L407.549 591.554L407.409 591.694V591.839V591.979L407.265 592.119V592.264V592.404V592.549V592.689V592.834L407.409 592.974V593.119L407.549 593.259V593.404H407.688L409.652 591.409Z" fill="#19417A"/>
<path d="M411.621 593.404L409.792 595.394L407.688 593.404L409.652 591.41L411.621 593.404Z" fill="#19417A"/>
<path d="M409.792 595.394V595.534H409.931L410.076 595.679H410.215L410.355 595.819H410.494H410.634H410.779H410.918H411.058L411.197 595.679H411.337L411.476 595.534H411.621L411.76 595.394V595.249L411.9 595.109V594.969H412.04V594.824V594.684V594.539V594.399V594.254V594.114V593.969V593.829L411.9 593.684V593.544L411.76 593.404H411.621L409.792 595.394Z" fill="#19417A"/>
<path d="M396.175 623.698H396.036L395.896 623.558H395.752L395.612 623.413H395.473H395.333H395.194H395.049H394.909H394.77H394.63L394.491 623.558H394.351L394.207 623.698V623.843H394.067L393.928 623.983V624.123V624.268L393.788 624.408V624.553V624.693V624.838V624.978V625.123L393.928 625.263V625.403L394.067 625.548V625.688L394.207 625.833L396.175 623.698Z" fill="#19417A"/>
<path d="M398.139 625.688L396.315 627.682L394.207 625.833L396.175 623.698L398.139 625.688Z" fill="#19417A"/>
<path d="M396.315 627.682L396.455 627.822V627.967H396.594L396.739 628.107H396.878H397.018H397.157H397.297H397.436H397.581H397.72L397.86 627.967H398V627.822H398.139L398.279 627.682L398.423 627.537V627.397L398.563 627.252V627.112V626.967L398.702 626.827V626.687V626.542L398.563 626.402V626.257V626.117L398.423 625.972V625.832H398.279L398.139 625.688L396.315 627.682Z" fill="#19417A"/>
</g>
<defs>
<clipPath id="clip0_3002_16">
<rect width="80.529" height="128.733" fill="white" transform="translate(1798.97 99.9639) rotate(23.8092)"/>
</clipPath>
<clipPath id="clip1_3002_16">
<rect width="109" height="328" fill="white" transform="translate(306 488)"/>
</clipPath>
</defs>
</svg>
