<svg width="68" height="85" viewBox="0 0 68 85" fill="none" xmlns="http://www.w3.org/2000/svg">
<g clip-path="url(#clip0_1_428)">
<path d="M41.4908 0.879883H66.3368L45.6818 27.3645H20.8359L41.4908 0.879883Z" fill="#0E6A8E"/>
<path d="M41.4908 0.879883H51.9913L31.3364 27.3645H20.8359L41.4908 0.879883Z" fill="#E52E40"/>
<path d="M49.5221 0.879883H58.3063L37.6512 27.3645H28.867L49.5221 0.879883Z" fill="#EAEAE4"/>
<path d="M33.2577 83.8122C47.4701 83.8122 58.9914 72.2369 58.9914 57.9579C58.9914 43.6789 47.4701 32.1035 33.2577 32.1035C19.0454 32.1035 7.52399 43.6789 7.52399 57.9579C7.52399 72.2369 19.0454 83.8122 33.2577 83.8122Z" fill="#F9AC30"/>
<path d="M20.8332 35.3113V27.3651H45.679V35.3113L49.8903 38.2308V25.2493C49.8903 24.0814 48.9487 23.1338 47.7847 23.1338H18.7274C17.565 23.1338 16.6218 24.0814 16.6218 25.2493V38.2324L20.8332 35.3113Z" fill="#F9AC30"/>
<path d="M33.2598 77.3131C43.8996 77.3131 52.5248 68.6475 52.5248 57.9579C52.5248 47.2682 43.8996 38.6025 33.2598 38.6025C22.6201 38.6025 13.9949 47.2682 13.9949 57.9579C13.9949 68.6475 22.6201 77.3131 33.2598 77.3131Z" fill="#DD8D19"/>
<path d="M25.0275 0.879883H0.181641L20.8365 27.3645H45.6825L25.0275 0.879883Z" fill="#E52E40"/>
<path d="M25.0272 0.879883H14.5267L35.1818 27.3645H45.6823L25.0272 0.879883Z" fill="#0E6A8E"/>
<path d="M16.9969 0.879883H8.21271L28.8677 27.3645H37.652L16.9969 0.879883Z" fill="#EAEAE4"/>
<path d="M32.0592 49.4126L30.7613 51.0518C30.5018 51.3126 30.1679 51.4244 29.9457 51.4244C29.1667 51.4244 28.6108 50.605 28.6108 49.8225C28.6108 49.2639 28.9074 48.6305 29.3896 48.2951L33.2458 44.5699C33.5055 44.3093 33.802 44.1602 34.2469 44.1602C35.0625 44.1602 35.9896 44.6442 35.9896 45.4639V70.1253C35.9896 70.9821 34.9884 71.4291 34.0244 71.4291C33.0232 71.4291 32.0592 70.9819 32.0592 70.1253V49.4126Z" fill="#F9AC30"/>
</g>
<defs>
<clipPath id="clip0_1_428">
<rect width="67.247" height="83.6487" fill="white" transform="translate(0.181641 0.879883)"/>
</clipPath>
</defs>
</svg>
