<svg width="65" height="81" viewBox="0 0 65 81" fill="none" xmlns="http://www.w3.org/2000/svg">
<g clip-path="url(#clip0_1_288)">
<path d="M39.5319 0.25H63.2941L43.54 25.5794H19.7779L39.5319 0.25Z" fill="#0E6A8E"/>
<path d="M39.5319 0.25H49.5743L29.8203 25.5794H19.7779L39.5319 0.25Z" fill="#E52E40"/>
<path d="M47.2128 0.25H55.6138L35.8597 25.5794H27.4587L47.2128 0.25Z" fill="#EAEAE4"/>
<path d="M31.6578 79.5655C45.2502 79.5655 56.269 68.4951 56.269 54.8389C56.269 41.1828 45.2502 30.1123 31.6578 30.1123C18.0654 30.1123 7.04651 41.1828 7.04651 54.8389C7.04651 68.4951 18.0654 79.5655 31.6578 79.5655Z" fill="#F9AC30"/>
<path d="M19.7753 33.1795V25.58H43.5374V33.1795L47.565 35.9717V23.5564C47.565 22.4395 46.6644 21.5332 45.5512 21.5332H17.7614C16.6496 21.5332 15.7476 22.4395 15.7476 23.5564V35.9732L19.7753 33.1795Z" fill="#F9AC30"/>
<path d="M31.6599 73.3492C41.8356 73.3492 50.0846 65.0616 50.0846 54.8382C50.0846 44.6148 41.8356 36.3271 31.6599 36.3271C21.4842 36.3271 13.2353 44.6148 13.2353 54.8382C13.2353 65.0616 21.4842 73.3492 31.6599 73.3492Z" fill="#DD8D19"/>
<path d="M23.7866 0.25H0.0245361L19.7785 25.5794H43.5407L23.7866 0.25Z" fill="#E52E40"/>
<path d="M23.7864 0.25H13.7439L33.498 25.5794H43.5405L23.7864 0.25Z" fill="#0E6A8E"/>
<path d="M16.1063 0.25H7.7053L27.4594 25.5794H35.8604L16.1063 0.25Z" fill="#EAEAE4"/>
<path d="M30.5116 46.666L29.2703 48.2337C29.0221 48.483 28.7029 48.59 28.4903 48.59C27.7453 48.59 27.2137 47.8063 27.2137 47.058C27.2137 46.5237 27.4973 45.918 27.9585 45.5972L31.6464 42.0344C31.8948 41.7852 32.1784 41.6426 32.6039 41.6426C33.384 41.6426 34.2706 42.1055 34.2706 42.8895V66.4752C34.2706 67.2946 33.3131 67.7221 32.3911 67.7221C31.4336 67.7221 30.5116 67.2944 30.5116 66.4752V46.666Z" fill="#F9AC30"/>
</g>
<defs>
<clipPath id="clip0_1_288">
<rect width="64.3137" height="80" fill="white" transform="translate(0.0245361 0.25)"/>
</clipPath>
</defs>
</svg>
