<svg width="81" height="92" viewBox="0 0 81 92" fill="none" xmlns="http://www.w3.org/2000/svg">
<path d="M33.7697 23.2493H29.7402V88.1386H33.7697V23.2493Z" fill="url(#paint0_linear_1_660)"/>
<path fill-rule="evenodd" clip-rule="evenodd" d="M29.7305 0.421143L80.7288 23.2723L29.7305 46.1235V0.421143Z" fill="url(#paint1_radial_1_660)"/>
<path fill-rule="evenodd" clip-rule="evenodd" d="M29.7402 46.1176L33.7697 44.3149V2.22965L29.7402 0.427002V46.1176Z" fill="url(#paint2_linear_1_660)"/>
<path style="mix-blend-mode:multiply" opacity="0.5" d="M79.0965 87.502C79.0965 89.9055 61.5589 91.8554 39.9095 91.8554C18.2601 91.8554 0.728516 89.9055 0.728516 87.502C0.728516 85.0985 18.2719 83.1486 39.9095 83.1486C61.5472 83.1486 79.0965 85.0985 79.0965 87.502Z" fill="url(#paint3_radial_1_660)"/>
<defs>
<linearGradient id="paint0_linear_1_660" x1="29.7402" y1="57.3587" x2="33.7697" y2="57.3587" gradientUnits="userSpaceOnUse">
<stop offset="0.01" stop-color="#C7BBBB"/>
<stop offset="0.37" stop-color="#F9EAEA"/>
<stop offset="0.66" stop-color="#96968C"/>
<stop offset="1" stop-color="#D9CCCC"/>
</linearGradient>
<radialGradient id="paint1_radial_1_660" cx="0" cy="0" r="1" gradientUnits="userSpaceOnUse" gradientTransform="translate(60.8998 24.8037) rotate(90) scale(20.2559 26.1076)">
<stop stop-color="#D02424"/>
<stop offset="0.32" stop-color="#C72F4E"/>
<stop offset="0.57" stop-color="#C02D48"/>
<stop offset="0.92" stop-color="#AD2638"/>
<stop offset="1" stop-color="#A82433"/>
</radialGradient>
<linearGradient id="paint2_linear_1_660" x1="29.7402" y1="23.2723" x2="33.7697" y2="23.2723" gradientUnits="userSpaceOnUse">
<stop stop-color="#D02424"/>
<stop offset="0.32" stop-color="#C72F4E"/>
<stop offset="0.69" stop-color="#C72F4E"/>
<stop offset="1" stop-color="#A82433"/>
</linearGradient>
<radialGradient id="paint3_radial_1_660" cx="0" cy="0" r="1" gradientUnits="userSpaceOnUse" gradientTransform="translate(39.9095 90.4743) scale(39.1928 4.3112)">
<stop offset="0.06" stop-color="#75757D"/>
<stop offset="0.16" stop-color="#9A9191"/>
<stop offset="0.18" stop-color="#A29A9A"/>
<stop offset="0.27" stop-color="#BFB9B9"/>
<stop offset="0.36" stop-color="#D6D3D3"/>
<stop offset="0.47" stop-color="#E9E6E6"/>
<stop offset="0.59" stop-color="#F5F4F4"/>
<stop offset="0.74" stop-color="#FDFDFD"/>
<stop offset="1" stop-color="white"/>
</radialGradient>
</defs>
</svg>
