<svg width="17" height="17" viewBox="0 0 17 17" fill="none" xmlns="http://www.w3.org/2000/svg">
<path fill-rule="evenodd" clip-rule="evenodd" d="M10.1043 0.938477L9.1043 1.93848L1.4043 9.63848L0.404297 10.6385L1.4043 11.6385L1.8043 12.0385C2.8043 11.4385 4.1043 11.5385 4.9043 12.3385C5.7043 13.1385 5.8043 14.4385 5.2043 15.4385L5.6043 15.8385L6.6043 16.8385L7.6043 15.8385L15.3043 8.13848L16.3043 7.13848L15.3043 6.13848L14.9043 5.73848C13.9043 6.33848 12.6043 6.23848 11.8043 5.43848C11.0043 4.63848 10.9043 3.33848 11.5043 2.33848L11.1043 1.93848L10.1043 0.938477ZM5.7043 7.33848L2.7043 10.3385C3.8043 10.2385 5.0043 10.6385 5.8043 11.4385C6.7043 12.3385 7.0043 13.4385 6.9043 14.5385L9.9043 11.5385L5.7043 7.33848ZM6.8043 6.33848L11.1043 10.6385L14.1043 7.63848C13.0043 7.73848 11.8043 7.33848 11.0043 6.53848C10.1043 5.63848 9.8043 4.53848 9.9043 3.43848L6.8043 6.33848Z" fill="white"/>
</svg>
