<svg width="343" height="105" viewBox="0 0 343 105" fill="none" xmlns="http://www.w3.org/2000/svg">
<path d="M0.5 102.485L43.4727 47.5271C46.4612 43.8012 48.4707 40.748 49.5012 38.3675C50.6348 35.9871 51.2015 33.4514 51.2015 30.7604C51.2015 28.0695 50.4802 25.6373 49.0375 23.4638C47.6978 21.2903 45.8428 19.5826 43.4727 18.3406C41.1025 16.9952 38.4746 16.3224 35.5892 16.3224C32.6007 16.3224 29.8698 16.9952 27.3966 18.3406C25.0264 19.5826 23.1199 21.2903 21.6772 23.4638C20.2344 25.6373 19.5131 28.0695 19.5131 30.7604C19.5131 33.4514 20.0283 35.8318 21.0589 37.9018C22.0894 39.9717 23.6352 41.9899 25.6962 43.9564L15.4941 57.3077C6.42549 50.3733 1.8912 41.6277 1.8912 31.0709C1.8912 25.1715 3.33393 19.8931 6.21938 15.2357C9.20789 10.5783 13.2269 6.9041 18.2765 4.21316C23.4291 1.41871 29.2 0.0214844 35.5892 0.0214844C41.9784 0.0214844 47.6978 1.36696 52.7473 4.05791C57.7969 6.64536 61.7644 10.2678 64.6498 14.9252C67.6383 19.4791 69.1326 24.654 69.1326 30.4499C69.1326 33.2444 68.7719 35.9871 68.0505 38.678C67.3292 41.2655 66.0926 44.0082 64.3407 46.9061C62.6918 49.7006 60.4247 53.0125 57.5392 56.8419L24.1504 99.3796L23.5321 85.8731H72.2241V102.485H0.5Z" fill="white"/>
<path d="M98.628 52.0293C98.628 56.8937 99.5039 61.4476 101.256 65.691C103.111 69.9344 105.584 73.6604 108.676 76.8688C111.767 80.0772 115.374 82.5612 119.496 84.3207C123.618 86.0801 128.101 86.9598 132.944 86.9598C137.685 86.9598 142.116 86.0801 146.238 84.3207C150.36 82.5612 153.967 80.0772 157.058 76.8688C160.253 73.6604 162.726 69.9344 164.478 65.691C166.23 61.4476 167.106 56.8937 167.106 52.0293C167.106 47.1648 166.23 42.6109 164.478 38.3675C162.726 34.1241 160.253 30.3982 157.058 27.1897C153.967 23.9813 150.36 21.4973 146.238 19.7379C142.116 17.9784 137.685 17.0987 132.944 17.0987C128.101 17.0987 123.618 17.9784 119.496 19.7379C115.374 21.4973 111.767 23.9813 108.676 27.1897C105.584 30.3982 103.111 34.1241 101.256 38.3675C99.5039 42.6109 98.628 47.1648 98.628 52.0293ZM80.0786 52.0293C80.0786 44.6809 81.4183 37.9018 84.0977 31.6919C86.777 25.3785 90.5384 19.8414 95.3818 15.0805C100.225 10.3195 105.842 6.64536 112.231 4.05791C118.62 1.36696 125.525 0.0214844 132.944 0.0214844C140.261 0.0214844 147.114 1.36696 153.503 4.05791C159.892 6.64536 165.509 10.3195 170.352 15.0805C175.196 19.8414 178.957 25.3785 181.636 31.6919C184.419 37.9018 185.81 44.6809 185.81 52.0293C185.81 59.3776 184.419 66.2085 181.636 72.5219C178.957 78.7318 175.196 84.2172 170.352 88.9781C165.509 93.739 159.892 97.4649 153.503 100.156C147.114 102.743 140.261 104.037 132.944 104.037C125.525 104.037 118.62 102.743 112.231 100.156C105.842 97.4649 100.225 93.739 95.3818 88.9781C90.5384 84.2172 86.777 78.7318 84.0977 72.5219C81.4183 66.2085 80.0786 59.3776 80.0786 52.0293Z" fill="white"/>
<path d="M195.081 102.485L238.054 47.5271C241.042 43.8012 243.052 40.748 244.082 38.3675C245.216 35.9871 245.782 33.4514 245.782 30.7604C245.782 28.0695 245.061 25.6373 243.618 23.4638C242.279 21.2903 240.424 19.5826 238.054 18.3406C235.683 16.9952 233.056 16.3224 230.17 16.3224C227.182 16.3224 224.451 16.9952 221.978 18.3406C219.607 19.5826 217.701 21.2903 216.258 23.4638C214.815 25.6373 214.094 28.0695 214.094 30.7604C214.094 33.4514 214.609 35.8318 215.64 37.9018C216.67 39.9717 218.216 41.9899 220.277 43.9564L210.075 57.3077C201.006 50.3733 196.472 41.6277 196.472 31.0709C196.472 25.1715 197.915 19.8931 200.8 15.2357C203.789 10.5783 207.808 6.9041 212.857 4.21316C218.01 1.41871 223.781 0.0214844 230.17 0.0214844C236.559 0.0214844 242.279 1.36696 247.328 4.05791C252.378 6.64536 256.345 10.2678 259.231 14.9252C262.219 19.4791 263.714 24.654 263.714 30.4499C263.714 33.2444 263.353 35.9871 262.631 38.678C261.91 41.2655 260.674 44.0082 258.922 46.9061C257.273 49.7006 255.006 53.0125 252.12 56.8419L218.731 99.3796L218.113 85.8731H266.805V102.485H195.081Z" fill="white"/>
<path d="M324.452 28.2765H342.074V102.485H324.452V91.462C324.452 87.4256 323.576 84.2172 321.824 81.8367C320.072 79.3527 317.753 77.3345 314.868 75.7821C312.086 74.2296 308.942 72.8324 305.439 71.5904C302.038 70.3484 298.586 68.8994 295.082 67.2435C291.681 65.5875 288.538 63.4658 285.653 60.8783C282.87 58.1874 280.603 54.7202 278.851 50.4768C277.099 46.2334 276.223 40.7997 276.223 34.1758V1.57395H294.309V33.2444C294.309 37.9018 295.082 41.576 296.628 44.2669C298.174 46.9579 300.183 49.0796 302.656 50.632C305.233 52.1845 308.015 53.53 311.004 54.6685C314.095 55.7034 317.135 56.9454 320.124 58.3944C323.112 59.8434 325.843 61.8098 328.316 64.2938C330.893 66.7777 332.902 70.1932 334.345 74.5401C335.891 78.7835 336.663 84.4242 336.663 91.462L324.452 74.2296V28.2765Z" fill="white"/>
<path d="M172.673 55.9292C172.673 77.9664 154.886 95.831 132.943 95.831C111.001 95.831 93.2136 77.9664 93.2136 55.9292C93.2136 33.892 111.001 16.0274 132.943 16.0274C154.886 16.0274 172.673 33.892 172.673 55.9292Z" fill="white"/>
</svg>
